999
Inkscape export via "Better DXF Output" (bob@bobcookdev.com)
  0
SECTION
  2
HEADER
  9
$ACADVER
  1
AC1014
  9
$HANDSEED
  5
FFFF
  0
ENDSEC
  0
SECTION
  2
TABLES
  0
TABLE
  2
VPORT
  5
8
330
0
100
AcDbSymbolTable
 70
     4
  0
VPORT
  5
2E
330
8
100
AcDbSymbolTableRecord
100
AcDbViewportTableRecord
  2
*ACTIVE
 70
     0
 10
0.0
 20
0.0
 11
1.0
 21
1.0
 12
4.25
 22
5.5
 13
0.0
 23
0.0
 14
10.0
 24
10.0
 15
10.0
 25
10.0
 16
0.0
 26
0.0
 36
1.0
 17
0.0
 27
0.0
 37
0.0
 40
11
 41
1.24
 42
50.0
 43
0.0
 44
0.0
 50
0.0
 51
0.0
 71
     0
 72
   100
 73
     1
 74
     3
 75
     0
 76
     0
 77
     0
 78
     0
  0
ENDTAB
  0
TABLE
  2
LTYPE
  5
5
330
0
100
AcDbSymbolTable
 70
     1
  0
LTYPE
  5
14
330
5
100
AcDbSymbolTableRecord
100
AcDbLinetypeTableRecord
  2
BYBLOCK
 70
     0
  3

 72
    65
 73
     0
 40
0.0
  0
LTYPE
  5
15
330
5
100
AcDbSymbolTableRecord
100
AcDbLinetypeTableRecord
  2
BYLAYER
 70
     0
  3

 72
    65
 73
     0
 40
0.0
  0
LTYPE
  5
16
330
5
100
AcDbSymbolTableRecord
100
AcDbLinetypeTableRecord
  2
CONTINUOUS
 70
     0
  3
Solid line
 72
    65
 73
     0
 40
0.0
  0
ENDTAB
  0
TABLE
  2
LAYER
  5
2
330
0
100
AcDbSymbolTable
 70
1
  0
LAYER
  5
10
330
2
100
AcDbSymbolTableRecord
100
AcDbLayerTableRecord
  2
0
 70
     0
 62
     7
  6
CONTINUOUS
  0
ENDTAB
  0
TABLE
  2
STYLE
  5
3
330
0
100
AcDbSymbolTable
 70
     1
  0
STYLE
  5
11
330
3
100
AcDbSymbolTableRecord
100
AcDbTextStyleTableRecord
  2
STANDARD
 70
     0
 40
0.0
 41
1.0
 50
0.0
 71
     0
 42
2.5
  3
txt
  4

  0
ENDTAB
  0
TABLE
  2
VIEW
  5
6
330
0
100
AcDbSymbolTable
 70
     0
  0
ENDTAB
  0
TABLE
  2
UCS
  5
7
330
0
100
AcDbSymbolTable
 70
     0
  0
ENDTAB
  0
TABLE
  2
APPID
  5
9
330
0
100
AcDbSymbolTable
 70
     2
  0
APPID
  5
12
330
9
100
AcDbSymbolTableRecord
100
AcDbRegAppTableRecord
  2
ACAD
 70
     0
  0
ENDTAB
  0
TABLE
  2
DIMSTYLE
  5
A
330
0
100
AcDbSymbolTable
 70
     1
  0
DIMSTYLE
105
27
330
A
100
AcDbSymbolTableRecord
100
AcDbDimStyleTableRecord
  2
ISO-25
 70
     0
  3

  4

  5

  6

  7

 40
1.0
 41
2.5
 42
0.625
 43
3.75
 44
1.25
 45
0.0
 46
0.0
 47
0.0
 48
0.0
140
2.5
141
2.5
142
0.0
143
0.03937007874016
144
1.0
145
0.0
146
1.0
147
0.625
 71
     0
 72
     0
 73
     0
 74
     0
 75
     0
 76
     0
 77
     1
 78
     8
170
     0
171
     3
172
     1
173
     0
174
     0
175
     0
176
     0
177
     0
178
     0
270
     2
271
     2
272
     2
273
     2
274
     3
340
11
275
     0
280
     0
281
     0
282
     0
283
     0
284
     8
285
     0
286
     0
287
     3
288
     0
  0
ENDTAB
  0
TABLE
  2
BLOCK_RECORD
  5
1
330
0
100
AcDbSymbolTable
 70
     1
  0
BLOCK_RECORD
  5
1F
330
1
100
AcDbSymbolTableRecord
100
AcDbBlockTableRecord
  2
*MODEL_SPACE
  0
BLOCK_RECORD
  5
1B
330
1
100
AcDbSymbolTableRecord
100
AcDbBlockTableRecord
  2
*PAPER_SPACE
  0
ENDTAB
  0
ENDSEC
  0
SECTION
  2
BLOCKS
  0
BLOCK
  5
20
330
1F
100
AcDbEntity
  8
0
100
AcDbBlockBegin
  2
*MODEL_SPACE
 70
     0
 10
0.0
 20
0.0
 30
0.0
  3
*MODEL_SPACE
  1

  0
ENDBLK
  5
21
330
1F
100
AcDbEntity
  8
0
100
AcDbBlockEnd
  0
BLOCK
  5
1C
330
1B
100
AcDbEntity
 67
     1
  8
0
100
AcDbBlockBegin
  2
*PAPER_SPACE
  1

  0
ENDBLK
  5
1D
330
1B
100
AcDbEntity
 67
     1
  8
0
100
AcDbBlockEnd
  0
ENDSEC
  0
SECTION
  2
ENTITIES
0
LINE
8
Layer 1
62
4
5
100
100
AcDbEntity
100
AcDbLine
10
0.846667
20
297.846667
30
0.0
11
-0.846667
21
296.153333
31
0.0
0
LINE
8
Layer 1
62
4
5
101
100
AcDbEntity
100
AcDbLine
10
0.000000
20
298.411111
30
0.0
11
0.000000
21
295.588889
31
0.0
0
LINE
8
Layer 1
62
4
5
102
100
AcDbEntity
100
AcDbLine
10
2.257778
20
295.871111
30
0.0
11
1.128889
21
294.742222
31
0.0
0
LINE
8
Layer 1
62
4
5
103
100
AcDbEntity
100
AcDbLine
10
1.693333
20
296.435556
30
0.0
11
0.564444
21
295.306667
31
0.0
0
LINE
8
Layer 1
62
4
5
104
100
AcDbEntity
100
AcDbLine
10
1.128889
20
297.000000
30
0.0
11
0.000000
21
295.871111
31
0.0
0
LINE
8
Layer 1
62
4
5
105
100
AcDbEntity
100
AcDbLine
10
-0.500000
20
-0.500000
30
0.0
11
0.500000
21
0.500000
31
0.0
0
LINE
8
Layer 1
62
4
5
106
100
AcDbEntity
100
AcDbLine
10
-0.500000
20
-0.000000
30
0.0
11
-1.000000
21
-0.000000
31
0.0
0
LINE
8
Layer 1
62
4
5
107
100
AcDbEntity
100
AcDbLine
10
0.000000
20
-0.000000
30
0.0
11
-1.000000
21
-0.000000
31
0.0
0
LINE
8
Layer 1
62
4
5
108
100
AcDbEntity
100
AcDbLine
10
4.679224
20
243.224628
30
0.0
11
8.179224
21
243.807962
31
0.0
0
LINE
8
Layer 1
62
4
5
109
100
AcDbEntity
100
AcDbLine
10
8.179224
20
243.807962
30
0.0
11
4.679224
21
244.391295
31
0.0
0
LINE
8
Layer 1
62
4
5
10a
100
AcDbEntity
100
AcDbLine
10
4.679224
20
244.391295
30
0.0
11
4.679224
21
243.224628
31
0.0
0
LINE
8
Layer 1
62
4
5
10b
100
AcDbEntity
100
AcDbLine
10
4.679224
20
243.224628
30
0.0
11
4.679224
21
243.224628
31
0.0
0
LINE
8
Layer 1
62
4
5
10c
100
AcDbEntity
100
AcDbLine
10
-11.440776
20
243.224628
30
0.0
11
-11.440776
21
244.391295
31
0.0
0
LINE
8
Layer 1
62
4
5
10d
100
AcDbEntity
100
AcDbLine
10
-11.440776
20
244.391295
30
0.0
11
-14.940776
21
243.807962
31
0.0
0
LINE
8
Layer 1
62
4
5
10e
100
AcDbEntity
100
AcDbLine
10
-14.940776
20
243.807962
30
0.0
11
-11.440776
21
243.224628
31
0.0
0
LINE
8
Layer 1
62
4
5
10f
100
AcDbEntity
100
AcDbLine
10
-11.440776
20
243.224628
30
0.0
11
-11.440776
21
243.224628
31
0.0
0
LINE
8
Layer 1
62
4
5
110
100
AcDbEntity
100
AcDbLine
10
8.179224
20
260.670613
30
0.0
11
8.179224
21
242.057962
31
0.0
0
LINE
8
Layer 1
62
4
5
111
100
AcDbEntity
100
AcDbLine
10
-14.940776
20
260.670613
30
0.0
11
-14.940776
21
242.057962
31
0.0
0
LINE
8
Layer 1
62
4
5
112
100
AcDbEntity
100
AcDbLine
10
8.179224
20
243.807962
30
0.0
11
-14.940776
21
243.807962
31
0.0
0
LINE
8
Layer 1
62
4
5
113
100
AcDbEntity
100
AcDbLine
10
30.424595
20
276.070613
30
0.0
11
29.841261
21
279.570613
31
0.0
0
LINE
8
Layer 1
62
4
5
114
100
AcDbEntity
100
AcDbLine
10
29.841261
20
279.570613
30
0.0
11
29.257928
21
276.070613
31
0.0
0
LINE
8
Layer 1
62
4
5
115
100
AcDbEntity
100
AcDbLine
10
29.257928
20
276.070613
30
0.0
11
30.424595
21
276.070613
31
0.0
0
LINE
8
Layer 1
62
4
5
116
100
AcDbEntity
100
AcDbLine
10
30.424595
20
276.070613
30
0.0
11
30.424595
21
276.070613
31
0.0
0
LINE
8
Layer 1
62
4
5
117
100
AcDbEntity
100
AcDbLine
10
30.424595
20
264.170613
30
0.0
11
29.257928
21
264.170613
31
0.0
0
LINE
8
Layer 1
62
4
5
118
100
AcDbEntity
100
AcDbLine
10
29.257928
20
264.170613
30
0.0
11
29.841261
21
260.670613
31
0.0
0
LINE
8
Layer 1
62
4
5
119
100
AcDbEntity
100
AcDbLine
10
29.841261
20
260.670613
30
0.0
11
30.424595
21
264.170613
31
0.0
0
LINE
8
Layer 1
62
4
5
11a
100
AcDbEntity
100
AcDbLine
10
30.424595
20
264.170613
30
0.0
11
30.424595
21
264.170613
31
0.0
0
LINE
8
Layer 1
62
4
5
11b
100
AcDbEntity
100
AcDbLine
10
8.179224
20
279.570613
30
0.0
11
31.591261
21
279.570613
31
0.0
0
LINE
8
Layer 1
62
4
5
11c
100
AcDbEntity
100
AcDbLine
10
8.179224
20
260.670613
30
0.0
11
31.591261
21
260.670613
31
0.0
0
LINE
8
Layer 1
62
4
5
11d
100
AcDbEntity
100
AcDbLine
10
29.841261
20
279.570613
30
0.0
11
29.841261
21
260.670613
31
0.0
0
LINE
8
Layer 1
62
4
5
11e
100
AcDbEntity
100
AcDbLine
10
-7.880776
20
251.806280
30
0.0
11
-4.380776
21
252.389613
31
0.0
0
LINE
8
Layer 1
62
4
5
11f
100
AcDbEntity
100
AcDbLine
10
-4.380776
20
252.389613
30
0.0
11
-7.880776
21
252.972946
31
0.0
0
LINE
8
Layer 1
62
4
5
120
100
AcDbEntity
100
AcDbLine
10
-7.880776
20
252.972946
30
0.0
11
-7.880776
21
251.806280
31
0.0
0
LINE
8
Layer 1
62
4
5
121
100
AcDbEntity
100
AcDbLine
10
-7.880776
20
251.806280
30
0.0
11
-7.880776
21
251.806280
31
0.0
0
LINE
8
Layer 1
62
4
5
122
100
AcDbEntity
100
AcDbLine
10
1.119224
20
251.806280
30
0.0
11
1.119224
21
252.972946
31
0.0
0
LINE
8
Layer 1
62
4
5
123
100
AcDbEntity
100
AcDbLine
10
1.119224
20
252.972946
30
0.0
11
-2.380776
21
252.389613
31
0.0
0
LINE
8
Layer 1
62
4
5
124
100
AcDbEntity
100
AcDbLine
10
-2.380776
20
252.389613
30
0.0
11
1.119224
21
251.806280
31
0.0
0
LINE
8
Layer 1
62
4
5
125
100
AcDbEntity
100
AcDbLine
10
1.119224
20
251.806280
30
0.0
11
1.119224
21
251.806280
31
0.0
0
LINE
8
Layer 1
62
4
5
126
100
AcDbEntity
100
AcDbLine
10
-4.380776
20
257.570613
30
0.0
11
-4.380776
21
250.639613
31
0.0
0
LINE
8
Layer 1
62
4
5
127
100
AcDbEntity
100
AcDbLine
10
-2.380776
20
257.570613
30
0.0
11
-2.380776
21
250.639613
31
0.0
0
LINE
8
Layer 1
62
4
5
128
100
AcDbEntity
100
AcDbLine
10
-11.380777
20
252.389613
30
0.0
11
4.619223
21
252.389613
31
0.0
0
LINE
8
Layer 1
62
4
5
129
100
AcDbEntity
100
AcDbLine
10
-9.525558
20
264.170613
30
0.0
11
-8.942224
21
260.670613
31
0.0
0
LINE
8
Layer 1
62
4
5
12a
100
AcDbEntity
100
AcDbLine
10
-8.942224
20
260.670613
30
0.0
11
-8.358891
21
264.170613
31
0.0
0
LINE
8
Layer 1
62
4
5
12b
100
AcDbEntity
100
AcDbLine
10
-8.358891
20
264.170613
30
0.0
11
-9.525558
21
264.170613
31
0.0
0
LINE
8
Layer 1
62
4
5
12c
100
AcDbEntity
100
AcDbLine
10
-9.525558
20
264.170613
30
0.0
11
-9.525558
21
264.170613
31
0.0
0
LINE
8
Layer 1
62
4
5
12d
100
AcDbEntity
100
AcDbLine
10
-9.525558
20
254.070613
30
0.0
11
-8.358891
21
254.070613
31
0.0
0
LINE
8
Layer 1
62
4
5
12e
100
AcDbEntity
100
AcDbLine
10
-8.358891
20
254.070613
30
0.0
11
-8.942224
21
257.570613
31
0.0
0
LINE
8
Layer 1
62
4
5
12f
100
AcDbEntity
100
AcDbLine
10
-8.942224
20
257.570613
30
0.0
11
-9.525558
21
254.070613
31
0.0
0
LINE
8
Layer 1
62
4
5
130
100
AcDbEntity
100
AcDbLine
10
-9.525558
20
254.070613
30
0.0
11
-9.525558
21
254.070613
31
0.0
0
LINE
8
Layer 1
62
4
5
131
100
AcDbEntity
100
AcDbLine
10
-4.380776
20
260.670613
30
0.0
11
-10.692225
21
260.670613
31
0.0
0
LINE
8
Layer 1
62
4
5
132
100
AcDbEntity
100
AcDbLine
10
-4.380776
20
257.570613
30
0.0
11
-10.692225
21
257.570613
31
0.0
0
LINE
8
Layer 1
62
4
5
133
100
AcDbEntity
100
AcDbLine
10
-8.942224
20
267.670613
30
0.0
11
-8.942224
21
250.570614
31
0.0
0
LINE
8
Layer 1
62
4
5
134
100
AcDbEntity
100
AcDbLine
10
3.806889
20
284.130613
30
0.0
11
2.640222
21
284.130613
31
0.0
0
LINE
8
Layer 1
62
4
5
135
100
AcDbEntity
100
AcDbLine
10
2.640222
20
284.130613
30
0.0
11
3.223556
21
280.630613
31
0.0
0
LINE
8
Layer 1
62
4
5
136
100
AcDbEntity
100
AcDbLine
10
3.223556
20
280.630613
30
0.0
11
3.806889
21
284.130613
31
0.0
0
LINE
8
Layer 1
62
4
5
137
100
AcDbEntity
100
AcDbLine
10
3.806889
20
284.130613
30
0.0
11
3.806889
21
284.130613
31
0.0
0
LINE
8
Layer 1
62
4
5
138
100
AcDbEntity
100
AcDbLine
10
3.806889
20
276.070613
30
0.0
11
3.223556
21
279.570613
31
0.0
0
LINE
8
Layer 1
62
4
5
139
100
AcDbEntity
100
AcDbLine
10
3.223556
20
279.570613
30
0.0
11
2.640222
21
276.070613
31
0.0
0
LINE
8
Layer 1
62
4
5
13a
100
AcDbEntity
100
AcDbLine
10
2.640222
20
276.070613
30
0.0
11
3.806889
21
276.070613
31
0.0
0
LINE
8
Layer 1
62
4
5
13b
100
AcDbEntity
100
AcDbLine
10
3.806889
20
276.070613
30
0.0
11
3.806889
21
276.070613
31
0.0
0
LINE
8
Layer 1
62
4
5
13c
100
AcDbEntity
100
AcDbLine
10
-2.380776
20
280.630613
30
0.0
11
4.973556
21
280.630613
31
0.0
0
LINE
8
Layer 1
62
4
5
13d
100
AcDbEntity
100
AcDbLine
10
-2.380776
20
279.570613
30
0.0
11
4.973556
21
279.570613
31
0.0
0
LINE
8
Layer 1
62
4
5
13e
100
AcDbEntity
100
AcDbLine
10
3.223556
20
287.630613
30
0.0
11
3.223556
21
272.570613
31
0.0
0
LINE
8
Layer 1
62
4
5
13f
100
AcDbEntity
100
AcDbLine
10
-14.380777
20
196.648400
30
0.0
11
-10.880776
21
197.231733
31
0.0
0
LINE
8
Layer 1
62
4
5
140
100
AcDbEntity
100
AcDbLine
10
-10.880776
20
197.231733
30
0.0
11
-14.380777
21
197.815066
31
0.0
0
LINE
8
Layer 1
62
4
5
141
100
AcDbEntity
100
AcDbLine
10
-14.380777
20
197.815066
30
0.0
11
-14.380777
21
196.648400
31
0.0
0
LINE
8
Layer 1
62
4
5
142
100
AcDbEntity
100
AcDbLine
10
-14.380777
20
196.648400
30
0.0
11
-14.380777
21
196.648400
31
0.0
0
LINE
8
Layer 1
62
4
5
143
100
AcDbEntity
100
AcDbLine
10
-4.880776
20
196.648400
30
0.0
11
-4.880776
21
197.815066
31
0.0
0
LINE
8
Layer 1
62
4
5
144
100
AcDbEntity
100
AcDbLine
10
-4.880776
20
197.815066
30
0.0
11
-8.380777
21
197.231733
31
0.0
0
LINE
8
Layer 1
62
4
5
145
100
AcDbEntity
100
AcDbLine
10
-8.380777
20
197.231733
30
0.0
11
-4.880776
21
196.648400
31
0.0
0
LINE
8
Layer 1
62
4
5
146
100
AcDbEntity
100
AcDbLine
10
-4.880776
20
196.648400
30
0.0
11
-4.880776
21
196.648400
31
0.0
0
LINE
8
Layer 1
62
4
5
147
100
AcDbEntity
100
AcDbLine
10
-10.880776
20
201.282632
30
0.0
11
-10.880776
21
195.481733
31
0.0
0
LINE
8
Layer 1
62
4
5
148
100
AcDbEntity
100
AcDbLine
10
-8.380777
20
201.282632
30
0.0
11
-8.380777
21
195.481733
31
0.0
0
LINE
8
Layer 1
62
4
5
149
100
AcDbEntity
100
AcDbLine
10
-17.880777
20
197.231733
30
0.0
11
12.282105
21
197.231733
31
0.0
0
LINE
8
Layer 1
62
4
5
14a
100
AcDbEntity
100
AcDbLine
10
-3.420777
20
271.480197
30
0.0
11
-3.420777
21
270.313530
31
0.0
0
LINE
8
Layer 1
62
4
5
14b
100
AcDbEntity
100
AcDbLine
10
-3.420777
20
270.313530
30
0.0
11
0.079223
21
270.896864
31
0.0
0
LINE
8
Layer 1
62
4
5
14c
100
AcDbEntity
100
AcDbLine
10
0.079223
20
270.896864
30
0.0
11
-3.420777
21
271.480197
31
0.0
0
LINE
8
Layer 1
62
4
5
14d
100
AcDbEntity
100
AcDbLine
10
-3.420777
20
271.480197
30
0.0
11
-3.420777
21
271.480197
31
0.0
0
LINE
8
Layer 1
62
4
5
14e
100
AcDbEntity
100
AcDbLine
10
5.539224
20
271.480197
30
0.0
11
2.039223
21
270.896864
31
0.0
0
LINE
8
Layer 1
62
4
5
14f
100
AcDbEntity
100
AcDbLine
10
2.039223
20
270.896864
30
0.0
11
5.539224
21
270.313530
31
0.0
0
LINE
8
Layer 1
62
4
5
150
100
AcDbEntity
100
AcDbLine
10
5.539224
20
270.313530
30
0.0
11
5.539224
21
271.480197
31
0.0
0
LINE
8
Layer 1
62
4
5
151
100
AcDbEntity
100
AcDbLine
10
5.539224
20
271.480197
30
0.0
11
5.539224
21
271.480197
31
0.0
0
LINE
8
Layer 1
62
4
5
152
100
AcDbEntity
100
AcDbLine
10
0.079223
20
266.752064
30
0.0
11
0.079223
21
272.646864
31
0.0
0
LINE
8
Layer 1
62
4
5
153
100
AcDbEntity
100
AcDbLine
10
2.039223
20
266.752064
30
0.0
11
2.039223
21
272.646864
31
0.0
0
LINE
8
Layer 1
62
4
5
154
100
AcDbEntity
100
AcDbLine
10
-6.920777
20
270.896864
30
0.0
11
9.039224
21
270.896864
31
0.0
0
LINE
8
Layer 1
62
4
5
155
100
AcDbEntity
100
AcDbLine
10
-3.340776
20
274.559191
30
0.0
11
-6.840777
21
273.975858
31
0.0
0
LINE
8
Layer 1
62
4
5
156
100
AcDbEntity
100
AcDbLine
10
-6.840777
20
273.975858
30
0.0
11
-3.340776
21
273.392525
31
0.0
0
LINE
8
Layer 1
62
4
5
157
100
AcDbEntity
100
AcDbLine
10
-3.340776
20
273.392525
30
0.0
11
-3.340776
21
274.559191
31
0.0
0
LINE
8
Layer 1
62
4
5
158
100
AcDbEntity
100
AcDbLine
10
-3.340776
20
274.559191
30
0.0
11
-3.340776
21
274.559191
31
0.0
0
LINE
8
Layer 1
62
4
5
159
100
AcDbEntity
100
AcDbLine
10
-12.300777
20
274.559191
30
0.0
11
-12.300777
21
273.392525
31
0.0
0
LINE
8
Layer 1
62
4
5
15a
100
AcDbEntity
100
AcDbLine
10
-12.300777
20
273.392525
30
0.0
11
-8.800777
21
273.975858
31
0.0
0
LINE
8
Layer 1
62
4
5
15b
100
AcDbEntity
100
AcDbLine
10
-8.800777
20
273.975858
30
0.0
11
-12.300777
21
274.559191
31
0.0
0
LINE
8
Layer 1
62
4
5
15c
100
AcDbEntity
100
AcDbLine
10
-12.300777
20
274.559191
30
0.0
11
-12.300777
21
274.559191
31
0.0
0
LINE
8
Layer 1
62
4
5
15d
100
AcDbEntity
100
AcDbLine
10
-6.840777
20
266.752064
30
0.0
11
-6.840777
21
275.725858
31
0.0
0
LINE
8
Layer 1
62
4
5
15e
100
AcDbEntity
100
AcDbLine
10
-8.800777
20
266.752064
30
0.0
11
-8.800777
21
275.725858
31
0.0
0
LINE
8
Layer 1
62
4
5
15f
100
AcDbEntity
100
AcDbLine
10
0.159224
20
273.975858
30
0.0
11
-18.680218
21
273.975858
31
0.0
0
LINE
8
Layer 1
62
4
5
160
100
AcDbEntity
100
AcDbLine
10
-5.300776
20
245.681576
30
0.0
11
-5.300776
21
246.848243
31
0.0
0
LINE
8
Layer 1
62
4
5
161
100
AcDbEntity
100
AcDbLine
10
-5.300776
20
246.848243
30
0.0
11
-8.800777
21
246.264910
31
0.0
0
LINE
8
Layer 1
62
4
5
162
100
AcDbEntity
100
AcDbLine
10
-8.800777
20
246.264910
30
0.0
11
-5.300776
21
245.681576
31
0.0
0
LINE
8
Layer 1
62
4
5
163
100
AcDbEntity
100
AcDbLine
10
-5.300776
20
245.681576
30
0.0
11
-5.300776
21
245.681576
31
0.0
0
LINE
8
Layer 1
62
4
5
164
100
AcDbEntity
100
AcDbLine
10
-1.460777
20
245.681576
30
0.0
11
2.039223
21
246.264910
31
0.0
0
LINE
8
Layer 1
62
4
5
165
100
AcDbEntity
100
AcDbLine
10
2.039223
20
246.264910
30
0.0
11
-1.460777
21
246.848243
31
0.0
0
LINE
8
Layer 1
62
4
5
166
100
AcDbEntity
100
AcDbLine
10
-1.460777
20
246.848243
30
0.0
11
-1.460777
21
245.681576
31
0.0
0
LINE
8
Layer 1
62
4
5
167
100
AcDbEntity
100
AcDbLine
10
-1.460777
20
245.681576
30
0.0
11
-1.460777
21
245.681576
31
0.0
0
LINE
8
Layer 1
62
4
5
168
100
AcDbEntity
100
AcDbLine
10
-8.800777
20
260.670613
30
0.0
11
-8.800777
21
244.514910
31
0.0
0
LINE
8
Layer 1
62
4
5
169
100
AcDbEntity
100
AcDbLine
10
2.039223
20
260.670613
30
0.0
11
2.039223
21
244.514910
31
0.0
0
LINE
8
Layer 1
62
4
5
16a
100
AcDbEntity
100
AcDbLine
10
-8.800777
20
246.264910
30
0.0
11
2.039223
21
246.264910
31
0.0
0
LINE
8
Layer 1
62
4
5
16b
100
AcDbEntity
100
AcDbLine
10
-11.320777
20
269.140171
30
0.0
11
-11.320777
21
267.973504
31
0.0
0
LINE
8
Layer 1
62
4
5
16c
100
AcDbEntity
100
AcDbLine
10
-11.320777
20
267.973504
30
0.0
11
-7.820777
21
268.556838
31
0.0
0
LINE
8
Layer 1
62
4
5
16d
100
AcDbEntity
100
AcDbLine
10
-7.820777
20
268.556838
30
0.0
11
-11.320777
21
269.140171
31
0.0
0
LINE
8
Layer 1
62
4
5
16e
100
AcDbEntity
100
AcDbLine
10
-11.320777
20
269.140171
30
0.0
11
-11.320777
21
269.140171
31
0.0
0
LINE
8
Layer 1
62
4
5
16f
100
AcDbEntity
100
AcDbLine
10
4.559224
20
269.140171
30
0.0
11
1.059223
21
268.556838
31
0.0
0
LINE
8
Layer 1
62
4
5
170
100
AcDbEntity
100
AcDbLine
10
1.059223
20
268.556838
30
0.0
11
4.559224
21
267.973504
31
0.0
0
LINE
8
Layer 1
62
4
5
171
100
AcDbEntity
100
AcDbLine
10
4.559224
20
267.973504
30
0.0
11
4.559224
21
269.140171
31
0.0
0
LINE
8
Layer 1
62
4
5
172
100
AcDbEntity
100
AcDbLine
10
4.559224
20
269.140171
30
0.0
11
4.559224
21
269.140171
31
0.0
0
LINE
8
Layer 1
62
4
5
173
100
AcDbEntity
100
AcDbLine
10
-7.820777
20
266.752064
30
0.0
11
-7.820777
21
270.306837
31
0.0
0
LINE
8
Layer 1
62
4
5
174
100
AcDbEntity
100
AcDbLine
10
1.059223
20
266.752064
30
0.0
11
1.059223
21
270.306837
31
0.0
0
LINE
8
Layer 1
62
4
5
175
100
AcDbEntity
100
AcDbLine
10
-14.820777
20
268.556838
30
0.0
11
18.715645
21
268.556838
31
0.0
0
LINE
8
fanClip
62
4
5
176
100
AcDbEntity
100
AcDbLine
10
169.344173
20
129.481895
30
0.0
11
162.099608
21
122.277958
31
0.0
0
LINE
8
fanClip
62
4
5
177
100
AcDbEntity
100
AcDbLine
10
162.099608
20
122.277958
30
0.0
11
165.073582
21
119.735202
31
0.0
0
LINE
8
fanClip
62
4
5
178
100
AcDbEntity
100
AcDbLine
10
165.073582
20
119.735202
30
0.0
11
167.681262
21
117.212614
31
0.0
0
LINE
8
fanClip
62
4
5
179
100
AcDbEntity
100
AcDbLine
10
167.681262
20
117.212614
30
0.0
11
169.926548
21
114.704825
31
0.0
0
LINE
8
fanClip
62
4
5
17a
100
AcDbEntity
100
AcDbLine
10
169.926548
20
114.704825
30
0.0
11
171.813342
21
112.206462
31
0.0
0
LINE
8
fanClip
62
4
5
17b
100
AcDbEntity
100
AcDbLine
10
171.813342
20
112.206462
30
0.0
11
173.345545
21
109.712155
31
0.0
0
LINE
8
fanClip
62
4
5
17c
100
AcDbEntity
100
AcDbLine
10
173.345545
20
109.712155
30
0.0
11
174.527059
21
107.216533
31
0.0
0
LINE
8
fanClip
62
4
5
17d
100
AcDbEntity
100
AcDbLine
10
174.527059
20
107.216533
30
0.0
11
175.361784
21
104.714224
31
0.0
0
LINE
8
fanClip
62
4
5
17e
100
AcDbEntity
100
AcDbLine
10
175.361784
20
104.714224
30
0.0
11
175.853622
21
102.199859
31
0.0
0
LINE
8
fanClip
62
4
5
17f
100
AcDbEntity
100
AcDbLine
10
175.853622
20
102.199859
30
0.0
11
176.006474
21
99.668065
31
0.0
0
LINE
8
fanClip
62
4
5
180
100
AcDbEntity
100
AcDbLine
10
176.006474
20
99.668065
30
0.0
11
175.824241
21
97.113471
31
0.0
0
LINE
8
fanClip
62
4
5
181
100
AcDbEntity
100
AcDbLine
10
175.824241
20
97.113471
30
0.0
11
175.310826
21
94.530708
31
0.0
0
LINE
8
fanClip
62
4
5
182
100
AcDbEntity
100
AcDbLine
10
175.310826
20
94.530708
30
0.0
11
174.470128
21
91.914403
31
0.0
0
LINE
8
fanClip
62
4
5
183
100
AcDbEntity
100
AcDbLine
10
174.470128
20
91.914403
30
0.0
11
173.306049
21
89.259186
31
0.0
0
LINE
8
fanClip
62
4
5
184
100
AcDbEntity
100
AcDbLine
10
173.306049
20
89.259186
30
0.0
11
171.822490
21
86.559685
31
0.0
0
LINE
8
fanClip
62
4
5
185
100
AcDbEntity
100
AcDbLine
10
171.822490
20
86.559685
30
0.0
11
170.023353
21
83.810530
31
0.0
0
LINE
8
fanClip
62
4
5
186
100
AcDbEntity
100
AcDbLine
10
170.023353
20
83.810530
30
0.0
11
167.912539
21
81.006350
31
0.0
0
LINE
8
fanClip
62
4
5
187
100
AcDbEntity
100
AcDbLine
10
167.912539
20
81.006350
30
0.0
11
167.155901
21
80.385137
31
0.0
0
LINE
8
fanClip
62
4
5
188
100
AcDbEntity
100
AcDbLine
10
167.155901
20
80.385137
30
0.0
11
192.478044
21
80.385137
31
0.0
0
LINE
8
fanClip
62
4
5
189
100
AcDbEntity
100
AcDbLine
10
192.478044
20
80.385137
30
0.0
11
192.656128
21
80.494958
31
0.0
0
LINE
8
fanClip
62
4
5
18a
100
AcDbEntity
100
AcDbLine
10
192.656128
20
80.494958
30
0.0
11
191.825711
21
86.796026
31
0.0
0
LINE
8
fanClip
62
4
5
18b
100
AcDbEntity
100
AcDbLine
10
191.825711
20
86.796026
30
0.0
11
190.812573
21
92.986312
31
0.0
0
LINE
8
fanClip
62
4
5
18c
100
AcDbEntity
100
AcDbLine
10
190.812573
20
92.986312
30
0.0
11
189.410420
21
99.095822
31
0.0
0
LINE
8
fanClip
62
4
5
18d
100
AcDbEntity
100
AcDbLine
10
189.410420
20
99.095822
30
0.0
11
188.498996
21
102.129662
31
0.0
0
LINE
8
fanClip
62
4
5
18e
100
AcDbEntity
100
AcDbLine
10
188.498996
20
102.129662
30
0.0
11
187.412959
21
105.154560
31
0.0
0
LINE
8
fanClip
62
4
5
18f
100
AcDbEntity
100
AcDbLine
10
187.412959
20
105.154560
30
0.0
11
186.126522
21
108.174266
31
0.0
0
LINE
8
fanClip
62
4
5
190
100
AcDbEntity
100
AcDbLine
10
186.126522
20
108.174266
30
0.0
11
184.613897
21
111.192532
31
0.0
0
LINE
8
fanClip
62
4
5
191
100
AcDbEntity
100
AcDbLine
10
184.613897
20
111.192532
30
0.0
11
182.849300
21
114.213106
31
0.0
0
LINE
8
fanClip
62
4
5
192
100
AcDbEntity
100
AcDbLine
10
182.849300
20
114.213106
30
0.0
11
180.806941
21
117.239741
31
0.0
0
LINE
8
fanClip
62
4
5
193
100
AcDbEntity
100
AcDbLine
10
180.806941
20
117.239741
30
0.0
11
178.461036
21
120.276187
31
0.0
0
LINE
8
fanClip
62
4
5
194
100
AcDbEntity
100
AcDbLine
10
178.461036
20
120.276187
30
0.0
11
175.785798
21
123.326194
31
0.0
0
LINE
8
fanClip
62
4
5
195
100
AcDbEntity
100
AcDbLine
10
175.785798
20
123.326194
30
0.0
11
172.755439
21
126.393513
31
0.0
0
LINE
8
fanClip
62
4
5
196
100
AcDbEntity
100
AcDbLine
10
172.755439
20
126.393513
30
0.0
11
169.344173
21
129.481895
31
0.0
0
LINE
8
fanClip
62
4
5
197
100
AcDbEntity
100
AcDbLine
10
169.344173
20
129.481895
30
0.0
11
169.344173
21
129.481895
31
0.0
0
LINE
8
fanShroud
62
4
5
198
100
AcDbEntity
100
AcDbLine
10
199.162332
20
80.385137
30
0.0
11
199.162332
21
84.401108
31
0.0
0
LINE
8
fanShroud
62
4
5
199
100
AcDbEntity
100
AcDbLine
10
199.162332
20
84.401108
30
0.0
11
199.162332
21
118.688856
31
0.0
0
LINE
8
fanShroud
62
4
5
19a
100
AcDbEntity
100
AcDbLine
10
199.162332
20
118.688856
30
0.0
11
197.577133
21
118.688856
31
0.0
0
LINE
8
fanShroud
62
4
5
19b
100
AcDbEntity
100
AcDbLine
10
197.577133
20
118.688856
30
0.0
11
197.577133
21
123.876640
31
0.0
0
LINE
8
fanShroud
62
4
5
19c
100
AcDbEntity
100
AcDbLine
10
197.577133
20
123.876640
30
0.0
11
187.602332
21
123.876640
31
0.0
0
LINE
8
fanShroud
62
4
5
19d
100
AcDbEntity
100
AcDbLine
10
187.602332
20
123.876640
30
0.0
11
188.035957
21
118.641466
31
0.0
0
LINE
8
fanShroud
62
4
5
19e
100
AcDbEntity
100
AcDbLine
10
188.035957
20
118.641466
30
0.0
11
188.202428
21
114.936124
31
0.0
0
LINE
8
fanShroud
62
4
5
19f
100
AcDbEntity
100
AcDbLine
10
188.202428
20
114.936124
30
0.0
11
188.120353
21
112.574396
31
0.0
0
LINE
8
fanShroud
62
4
5
1a0
100
AcDbEntity
100
AcDbLine
10
188.120353
20
112.574396
30
0.0
11
187.808343
21
111.370067
31
0.0
0
LINE
8
fanShroud
62
4
5
1a1
100
AcDbEntity
100
AcDbLine
10
187.808343
20
111.370067
30
0.0
11
187.571929
21
111.143734
31
0.0
0
LINE
8
fanShroud
62
4
5
1a2
100
AcDbEntity
100
AcDbLine
10
187.571929
20
111.143734
30
0.0
11
187.285009
21
111.136919
31
0.0
0
LINE
8
fanShroud
62
4
5
1a3
100
AcDbEntity
100
AcDbLine
10
187.285009
20
111.136919
30
0.0
11
186.568962
21
111.688738
31
0.0
0
LINE
8
fanShroud
62
4
5
1a4
100
AcDbEntity
100
AcDbLine
10
186.568962
20
111.688738
30
0.0
11
184.633169
21
114.402406
31
0.0
0
LINE
8
fanShroud
62
4
5
1a5
100
AcDbEntity
100
AcDbLine
10
184.633169
20
114.402406
30
0.0
11
182.010777
21
117.999946
31
0.0
0
LINE
8
fanShroud
62
4
5
1a6
100
AcDbEntity
100
AcDbLine
10
182.010777
20
117.999946
30
0.0
11
178.668806
21
121.911638
31
0.0
0
LINE
8
fanShroud
62
4
5
1a7
100
AcDbEntity
100
AcDbLine
10
178.668806
20
121.911638
30
0.0
11
174.691955
21
126.059858
31
0.0
0
LINE
8
fanShroud
62
4
5
1a8
100
AcDbEntity
100
AcDbLine
10
174.691955
20
126.059858
30
0.0
11
170.164921
21
130.366986
31
0.0
0
LINE
8
fanShroud
62
4
5
1a9
100
AcDbEntity
100
AcDbLine
10
170.164921
20
130.366986
30
0.0
11
168.474077
21
128.557095
31
0.0
0
LINE
8
fanShroud
62
4
5
1aa
100
AcDbEntity
100
AcDbLine
10
168.474077
20
128.557095
30
0.0
11
173.319778
21
123.548515
31
0.0
0
LINE
8
fanShroud
62
4
5
1ab
100
AcDbEntity
100
AcDbLine
10
173.319778
20
123.548515
30
0.0
11
177.521910
21
118.809607
31
0.0
0
LINE
8
fanShroud
62
4
5
1ac
100
AcDbEntity
100
AcDbLine
10
177.521910
20
118.809607
30
0.0
11
181.124090
21
114.060832
31
0.0
0
LINE
8
fanShroud
62
4
5
1ad
100
AcDbEntity
100
AcDbLine
10
181.124090
20
114.060832
30
0.0
11
182.713829
21
111.595389
31
0.0
0
LINE
8
fanShroud
62
4
5
1ae
100
AcDbEntity
100
AcDbLine
10
182.713829
20
111.595389
30
0.0
11
184.169937
21
109.022653
31
0.0
0
LINE
8
fanShroud
62
4
5
1af
100
AcDbEntity
100
AcDbLine
10
184.169937
20
109.022653
30
0.0
11
185.497865
21
106.307681
31
0.0
0
LINE
8
fanShroud
62
4
5
1b0
100
AcDbEntity
100
AcDbLine
10
185.497865
20
106.307681
30
0.0
11
186.703067
21
103.415531
31
0.0
0
LINE
8
fanShroud
62
4
5
1b1
100
AcDbEntity
100
AcDbLine
10
186.703067
20
103.415531
30
0.0
11
187.790993
21
100.311262
31
0.0
0
LINE
8
fanShroud
62
4
5
1b2
100
AcDbEntity
100
AcDbLine
10
187.790993
20
100.311262
30
0.0
11
188.767098
21
96.959930
31
0.0
0
LINE
8
fanShroud
62
4
5
1b3
100
AcDbEntity
100
AcDbLine
10
188.767098
20
96.959930
30
0.0
11
189.636831
21
93.326594
31
0.0
0
LINE
8
fanShroud
62
4
5
1b4
100
AcDbEntity
100
AcDbLine
10
189.636831
20
93.326594
30
0.0
11
190.405647
21
89.376311
31
0.0
0
LINE
8
fanShroud
62
4
5
1b5
100
AcDbEntity
100
AcDbLine
10
190.405647
20
89.376311
30
0.0
11
191.662332
21
80.385137
31
0.0
0
LINE
8
fanShroud
62
4
5
1b6
100
AcDbEntity
100
AcDbLine
10
191.662332
20
80.385137
30
0.0
11
194.162331
21
80.385137
31
0.0
0
LINE
8
fanShroud
62
4
5
1b7
100
AcDbEntity
100
AcDbLine
10
194.162331
20
80.385137
30
0.0
11
199.162332
21
80.385137
31
0.0
0
LINE
8
fanShroud
62
4
5
1b8
100
AcDbEntity
100
AcDbLine
10
165.397998
20
80.385137
30
0.0
11
169.381210
21
80.385137
31
0.0
0
LINE
8
fanShroud
62
4
5
1b9
100
AcDbEntity
100
AcDbLine
10
169.381210
20
80.385137
30
0.0
11
171.925521
21
83.833115
31
0.0
0
LINE
8
fanShroud
62
4
5
1ba
100
AcDbEntity
100
AcDbLine
10
171.925521
20
83.833115
30
0.0
11
173.970898
21
87.112451
31
0.0
0
LINE
8
fanShroud
62
4
5
1bb
100
AcDbEntity
100
AcDbLine
10
173.970898
20
87.112451
30
0.0
11
175.540706
21
90.237777
31
0.0
0
LINE
8
fanShroud
62
4
5
1bc
100
AcDbEntity
100
AcDbLine
10
175.540706
20
90.237777
30
0.0
11
176.658313
21
93.223730
31
0.0
0
LINE
8
fanShroud
62
4
5
1bd
100
AcDbEntity
100
AcDbLine
10
176.658313
20
93.223730
30
0.0
11
177.347085
21
96.084945
31
0.0
0
LINE
8
fanShroud
62
4
5
1be
100
AcDbEntity
100
AcDbLine
10
177.347085
20
96.084945
30
0.0
11
177.630388
21
98.836055
31
0.0
0
LINE
8
fanShroud
62
4
5
1bf
100
AcDbEntity
100
AcDbLine
10
177.630388
20
98.836055
30
0.0
11
177.531590
21
101.491697
31
0.0
0
LINE
8
fanShroud
62
4
5
1c0
100
AcDbEntity
100
AcDbLine
10
177.531590
20
101.491697
30
0.0
11
177.074056
21
104.066505
31
0.0
0
LINE
8
fanShroud
62
4
5
1c1
100
AcDbEntity
100
AcDbLine
10
177.074056
20
104.066505
30
0.0
11
176.281154
21
106.575114
31
0.0
0
LINE
8
fanShroud
62
4
5
1c2
100
AcDbEntity
100
AcDbLine
10
176.281154
20
106.575114
30
0.0
11
175.176249
21
109.032159
31
0.0
0
LINE
8
fanShroud
62
4
5
1c3
100
AcDbEntity
100
AcDbLine
10
175.176249
20
109.032159
30
0.0
11
173.782709
21
111.452275
31
0.0
0
LINE
8
fanShroud
62
4
5
1c4
100
AcDbEntity
100
AcDbLine
10
173.782709
20
111.452275
30
0.0
11
172.123901
21
113.850097
31
0.0
0
LINE
8
fanShroud
62
4
5
1c5
100
AcDbEntity
100
AcDbLine
10
172.123901
20
113.850097
30
0.0
11
170.223190
21
116.240259
31
0.0
0
LINE
8
fanShroud
62
4
5
1c6
100
AcDbEntity
100
AcDbLine
10
170.223190
20
116.240259
30
0.0
11
168.103944
21
118.637397
31
0.0
0
LINE
8
fanShroud
62
4
5
1c7
100
AcDbEntity
100
AcDbLine
10
168.103944
20
118.637397
30
0.0
11
163.303311
21
123.511139
31
0.0
0
LINE
8
fanShroud
62
4
5
1c8
100
AcDbEntity
100
AcDbLine
10
163.303311
20
123.511139
30
0.0
11
161.101809
21
121.345146
31
0.0
0
LINE
8
fanShroud
62
4
5
1c9
100
AcDbEntity
100
AcDbLine
10
161.101809
20
121.345146
30
0.0
11
164.013833
21
118.757946
31
0.0
0
LINE
8
fanShroud
62
4
5
1ca
100
AcDbEntity
100
AcDbLine
10
164.013833
20
118.757946
30
0.0
11
166.562906
21
116.235758
31
0.0
0
LINE
8
fanShroud
62
4
5
1cb
100
AcDbEntity
100
AcDbLine
10
166.562906
20
116.235758
30
0.0
11
168.754187
21
113.768710
31
0.0
0
LINE
8
fanShroud
62
4
5
1cc
100
AcDbEntity
100
AcDbLine
10
168.754187
20
113.768710
30
0.0
11
170.592832
21
111.346933
31
0.0
0
LINE
8
fanShroud
62
4
5
1cd
100
AcDbEntity
100
AcDbLine
10
170.592832
20
111.346933
30
0.0
11
172.084000
21
108.960558
31
0.0
0
LINE
8
fanShroud
62
4
5
1ce
100
AcDbEntity
100
AcDbLine
10
172.084000
20
108.960558
30
0.0
11
173.232847
21
106.599715
31
0.0
0
LINE
8
fanShroud
62
4
5
1cf
100
AcDbEntity
100
AcDbLine
10
173.232847
20
106.599715
30
0.0
11
174.044532
21
104.254535
31
0.0
0
LINE
8
fanShroud
62
4
5
1d0
100
AcDbEntity
100
AcDbLine
10
174.044532
20
104.254535
30
0.0
11
174.524212
21
101.915147
31
0.0
0
LINE
8
fanShroud
62
4
5
1d1
100
AcDbEntity
100
AcDbLine
10
174.524212
20
101.915147
30
0.0
11
174.677045
21
99.571682
31
0.0
0
LINE
8
fanShroud
62
4
5
1d2
100
AcDbEntity
100
AcDbLine
10
174.677045
20
99.571682
30
0.0
11
174.508187
21
97.214271
31
0.0
0
LINE
8
fanShroud
62
4
5
1d3
100
AcDbEntity
100
AcDbLine
10
174.508187
20
97.214271
30
0.0
11
174.022797
21
94.833044
31
0.0
0
LINE
8
fanShroud
62
4
5
1d4
100
AcDbEntity
100
AcDbLine
10
174.022797
20
94.833044
30
0.0
11
173.226032
21
92.418130
31
0.0
0
LINE
8
fanShroud
62
4
5
1d5
100
AcDbEntity
100
AcDbLine
10
173.226032
20
92.418130
30
0.0
11
172.123050
21
89.959662
31
0.0
0
LINE
8
fanShroud
62
4
5
1d6
100
AcDbEntity
100
AcDbLine
10
172.123050
20
89.959662
30
0.0
11
170.719009
21
87.447768
31
0.0
0
LINE
8
fanShroud
62
4
5
1d7
100
AcDbEntity
100
AcDbLine
10
170.719009
20
87.447768
30
0.0
11
169.019065
21
84.872579
31
0.0
0
LINE
8
fanShroud
62
4
5
1d8
100
AcDbEntity
100
AcDbLine
10
169.019065
20
84.872579
30
0.0
11
167.028376
21
82.224227
31
0.0
0
LINE
8
fanShroud
62
4
5
1d9
100
AcDbEntity
100
AcDbLine
10
167.028376
20
82.224227
30
0.0
11
165.397998
21
80.385137
31
0.0
  0
ENDSEC
  0
SECTION
  2
OBJECTS
  0
DICTIONARY
  5
C
330
0
100
AcDbDictionary
  3
ACAD_GROUP
350
D
  3
ACAD_MLINESTYLE
350
17
  0
DICTIONARY
  5
D
330
C
100
AcDbDictionary
  0
DICTIONARY
  5
1A
330
C
100
AcDbDictionary
  0
DICTIONARY
  5
17
330
C
100
AcDbDictionary
  3
STANDARD
350
18
  0
DICTIONARY
  5
19
330
C
100
AcDbDictionary
  0
ENDSEC
  0
EOF
