999
Inkscape export via "Better DXF Output" (bob@bobcookdev.com)
  0
SECTION
  2
HEADER
  9
$ACADVER
  1
AC1014
  9
$HANDSEED
  5
FFFF
  0
ENDSEC
  0
SECTION
  2
TABLES
  0
TABLE
  2
VPORT
  5
8
330
0
100
AcDbSymbolTable
 70
     4
  0
VPORT
  5
2E
330
8
100
AcDbSymbolTableRecord
100
AcDbViewportTableRecord
  2
*ACTIVE
 70
     0
 10
0.0
 20
0.0
 11
1.0
 21
1.0
 12
4.25
 22
5.5
 13
0.0
 23
0.0
 14
10.0
 24
10.0
 15
10.0
 25
10.0
 16
0.0
 26
0.0
 36
1.0
 17
0.0
 27
0.0
 37
0.0
 40
11
 41
1.24
 42
50.0
 43
0.0
 44
0.0
 50
0.0
 51
0.0
 71
     0
 72
   100
 73
     1
 74
     3
 75
     0
 76
     0
 77
     0
 78
     0
  0
ENDTAB
  0
TABLE
  2
LTYPE
  5
5
330
0
100
AcDbSymbolTable
 70
     1
  0
LTYPE
  5
14
330
5
100
AcDbSymbolTableRecord
100
AcDbLinetypeTableRecord
  2
BYBLOCK
 70
     0
  3

 72
    65
 73
     0
 40
0.0
  0
LTYPE
  5
15
330
5
100
AcDbSymbolTableRecord
100
AcDbLinetypeTableRecord
  2
BYLAYER
 70
     0
  3

 72
    65
 73
     0
 40
0.0
  0
LTYPE
  5
16
330
5
100
AcDbSymbolTableRecord
100
AcDbLinetypeTableRecord
  2
CONTINUOUS
 70
     0
  3
Solid line
 72
    65
 73
     0
 40
0.0
  0
ENDTAB
  0
TABLE
  2
LAYER
  5
2
330
0
100
AcDbSymbolTable
 70
1
  0
LAYER
  5
10
330
2
100
AcDbSymbolTableRecord
100
AcDbLayerTableRecord
  2
0
 70
     0
 62
     7
  6
CONTINUOUS
  0
ENDTAB
  0
TABLE
  2
STYLE
  5
3
330
0
100
AcDbSymbolTable
 70
     1
  0
STYLE
  5
11
330
3
100
AcDbSymbolTableRecord
100
AcDbTextStyleTableRecord
  2
STANDARD
 70
     0
 40
0.0
 41
1.0
 50
0.0
 71
     0
 42
2.5
  3
txt
  4

  0
ENDTAB
  0
TABLE
  2
VIEW
  5
6
330
0
100
AcDbSymbolTable
 70
     0
  0
ENDTAB
  0
TABLE
  2
UCS
  5
7
330
0
100
AcDbSymbolTable
 70
     0
  0
ENDTAB
  0
TABLE
  2
APPID
  5
9
330
0
100
AcDbSymbolTable
 70
     2
  0
APPID
  5
12
330
9
100
AcDbSymbolTableRecord
100
AcDbRegAppTableRecord
  2
ACAD
 70
     0
  0
ENDTAB
  0
TABLE
  2
DIMSTYLE
  5
A
330
0
100
AcDbSymbolTable
 70
     1
  0
DIMSTYLE
105
27
330
A
100
AcDbSymbolTableRecord
100
AcDbDimStyleTableRecord
  2
ISO-25
 70
     0
  3

  4

  5

  6

  7

 40
1.0
 41
2.5
 42
0.625
 43
3.75
 44
1.25
 45
0.0
 46
0.0
 47
0.0
 48
0.0
140
2.5
141
2.5
142
0.0
143
0.03937007874016
144
1.0
145
0.0
146
1.0
147
0.625
 71
     0
 72
     0
 73
     0
 74
     0
 75
     0
 76
     0
 77
     1
 78
     8
170
     0
171
     3
172
     1
173
     0
174
     0
175
     0
176
     0
177
     0
178
     0
270
     2
271
     2
272
     2
273
     2
274
     3
340
11
275
     0
280
     0
281
     0
282
     0
283
     0
284
     8
285
     0
286
     0
287
     3
288
     0
  0
ENDTAB
  0
TABLE
  2
BLOCK_RECORD
  5
1
330
0
100
AcDbSymbolTable
 70
     1
  0
BLOCK_RECORD
  5
1F
330
1
100
AcDbSymbolTableRecord
100
AcDbBlockTableRecord
  2
*MODEL_SPACE
  0
BLOCK_RECORD
  5
1B
330
1
100
AcDbSymbolTableRecord
100
AcDbBlockTableRecord
  2
*PAPER_SPACE
  0
ENDTAB
  0
ENDSEC
  0
SECTION
  2
BLOCKS
  0
BLOCK
  5
20
330
1F
100
AcDbEntity
  8
0
100
AcDbBlockBegin
  2
*MODEL_SPACE
 70
     0
 10
0.0
 20
0.0
 30
0.0
  3
*MODEL_SPACE
  1

  0
ENDBLK
  5
21
330
1F
100
AcDbEntity
  8
0
100
AcDbBlockEnd
  0
BLOCK
  5
1C
330
1B
100
AcDbEntity
 67
     1
  8
0
100
AcDbBlockBegin
  2
*PAPER_SPACE
  1

  0
ENDBLK
  5
1D
330
1B
100
AcDbEntity
 67
     1
  8
0
100
AcDbBlockEnd
  0
ENDSEC
  0
SECTION
  2
ENTITIES
0
LINE
8
Layer 1
62
4
5
100
100
AcDbEntity
100
AcDbLine
10
0.846667
20
297.846667
30
0.0
11
-0.846667
21
296.153333
31
0.0
0
LINE
8
Layer 1
62
4
5
101
100
AcDbEntity
100
AcDbLine
10
0.000000
20
298.411111
30
0.0
11
0.000000
21
295.588889
31
0.0
0
LINE
8
Layer 1
62
4
5
102
100
AcDbEntity
100
AcDbLine
10
2.257778
20
295.871111
30
0.0
11
1.128889
21
294.742222
31
0.0
0
LINE
8
Layer 1
62
4
5
103
100
AcDbEntity
100
AcDbLine
10
1.693333
20
296.435556
30
0.0
11
0.564444
21
295.306667
31
0.0
0
LINE
8
Layer 1
62
4
5
104
100
AcDbEntity
100
AcDbLine
10
1.128889
20
297.000000
30
0.0
11
0.000000
21
295.871111
31
0.0
0
LINE
8
Layer 1
62
4
5
105
100
AcDbEntity
100
AcDbLine
10
-0.500000
20
-0.500000
30
0.0
11
0.500000
21
0.500000
31
0.0
0
LINE
8
Layer 1
62
4
5
106
100
AcDbEntity
100
AcDbLine
10
-0.500000
20
-0.000000
30
0.0
11
-1.000000
21
-0.000000
31
0.0
0
LINE
8
Layer 1
62
4
5
107
100
AcDbEntity
100
AcDbLine
10
0.000000
20
-0.000000
30
0.0
11
-1.000000
21
-0.000000
31
0.0
0
LINE
8
Layer 1
62
4
5
108
100
AcDbEntity
100
AcDbLine
10
4.679224
20
243.224628
30
0.0
11
8.179224
21
243.807962
31
0.0
0
LINE
8
Layer 1
62
4
5
109
100
AcDbEntity
100
AcDbLine
10
8.179224
20
243.807962
30
0.0
11
4.679224
21
244.391295
31
0.0
0
LINE
8
Layer 1
62
4
5
10a
100
AcDbEntity
100
AcDbLine
10
4.679224
20
244.391295
30
0.0
11
4.679224
21
243.224628
31
0.0
0
LINE
8
Layer 1
62
4
5
10b
100
AcDbEntity
100
AcDbLine
10
4.679224
20
243.224628
30
0.0
11
4.679224
21
243.224628
31
0.0
0
LINE
8
Layer 1
62
4
5
10c
100
AcDbEntity
100
AcDbLine
10
-11.440776
20
243.224628
30
0.0
11
-11.440776
21
244.391295
31
0.0
0
LINE
8
Layer 1
62
4
5
10d
100
AcDbEntity
100
AcDbLine
10
-11.440776
20
244.391295
30
0.0
11
-14.940776
21
243.807962
31
0.0
0
LINE
8
Layer 1
62
4
5
10e
100
AcDbEntity
100
AcDbLine
10
-14.940776
20
243.807962
30
0.0
11
-11.440776
21
243.224628
31
0.0
0
LINE
8
Layer 1
62
4
5
10f
100
AcDbEntity
100
AcDbLine
10
-11.440776
20
243.224628
30
0.0
11
-11.440776
21
243.224628
31
0.0
0
LINE
8
Layer 1
62
4
5
110
100
AcDbEntity
100
AcDbLine
10
8.179224
20
260.670613
30
0.0
11
8.179224
21
242.057962
31
0.0
0
LINE
8
Layer 1
62
4
5
111
100
AcDbEntity
100
AcDbLine
10
-14.940776
20
260.670613
30
0.0
11
-14.940776
21
242.057962
31
0.0
0
LINE
8
Layer 1
62
4
5
112
100
AcDbEntity
100
AcDbLine
10
8.179224
20
243.807962
30
0.0
11
-14.940776
21
243.807962
31
0.0
0
LINE
8
Layer 1
62
4
5
113
100
AcDbEntity
100
AcDbLine
10
30.424595
20
276.070613
30
0.0
11
29.841261
21
279.570613
31
0.0
0
LINE
8
Layer 1
62
4
5
114
100
AcDbEntity
100
AcDbLine
10
29.841261
20
279.570613
30
0.0
11
29.257928
21
276.070613
31
0.0
0
LINE
8
Layer 1
62
4
5
115
100
AcDbEntity
100
AcDbLine
10
29.257928
20
276.070613
30
0.0
11
30.424595
21
276.070613
31
0.0
0
LINE
8
Layer 1
62
4
5
116
100
AcDbEntity
100
AcDbLine
10
30.424595
20
276.070613
30
0.0
11
30.424595
21
276.070613
31
0.0
0
LINE
8
Layer 1
62
4
5
117
100
AcDbEntity
100
AcDbLine
10
30.424595
20
264.170613
30
0.0
11
29.257928
21
264.170613
31
0.0
0
LINE
8
Layer 1
62
4
5
118
100
AcDbEntity
100
AcDbLine
10
29.257928
20
264.170613
30
0.0
11
29.841261
21
260.670613
31
0.0
0
LINE
8
Layer 1
62
4
5
119
100
AcDbEntity
100
AcDbLine
10
29.841261
20
260.670613
30
0.0
11
30.424595
21
264.170613
31
0.0
0
LINE
8
Layer 1
62
4
5
11a
100
AcDbEntity
100
AcDbLine
10
30.424595
20
264.170613
30
0.0
11
30.424595
21
264.170613
31
0.0
0
LINE
8
Layer 1
62
4
5
11b
100
AcDbEntity
100
AcDbLine
10
8.179224
20
279.570613
30
0.0
11
31.591261
21
279.570613
31
0.0
0
LINE
8
Layer 1
62
4
5
11c
100
AcDbEntity
100
AcDbLine
10
8.179224
20
260.670613
30
0.0
11
31.591261
21
260.670613
31
0.0
0
LINE
8
Layer 1
62
4
5
11d
100
AcDbEntity
100
AcDbLine
10
29.841261
20
279.570613
30
0.0
11
29.841261
21
260.670613
31
0.0
0
LINE
8
Layer 1
62
4
5
11e
100
AcDbEntity
100
AcDbLine
10
-7.880776
20
251.806280
30
0.0
11
-4.380776
21
252.389613
31
0.0
0
LINE
8
Layer 1
62
4
5
11f
100
AcDbEntity
100
AcDbLine
10
-4.380776
20
252.389613
30
0.0
11
-7.880776
21
252.972946
31
0.0
0
LINE
8
Layer 1
62
4
5
120
100
AcDbEntity
100
AcDbLine
10
-7.880776
20
252.972946
30
0.0
11
-7.880776
21
251.806280
31
0.0
0
LINE
8
Layer 1
62
4
5
121
100
AcDbEntity
100
AcDbLine
10
-7.880776
20
251.806280
30
0.0
11
-7.880776
21
251.806280
31
0.0
0
LINE
8
Layer 1
62
4
5
122
100
AcDbEntity
100
AcDbLine
10
1.119224
20
251.806280
30
0.0
11
1.119224
21
252.972946
31
0.0
0
LINE
8
Layer 1
62
4
5
123
100
AcDbEntity
100
AcDbLine
10
1.119224
20
252.972946
30
0.0
11
-2.380776
21
252.389613
31
0.0
0
LINE
8
Layer 1
62
4
5
124
100
AcDbEntity
100
AcDbLine
10
-2.380776
20
252.389613
30
0.0
11
1.119224
21
251.806280
31
0.0
0
LINE
8
Layer 1
62
4
5
125
100
AcDbEntity
100
AcDbLine
10
1.119224
20
251.806280
30
0.0
11
1.119224
21
251.806280
31
0.0
0
LINE
8
Layer 1
62
4
5
126
100
AcDbEntity
100
AcDbLine
10
-4.380776
20
257.570613
30
0.0
11
-4.380776
21
250.639613
31
0.0
0
LINE
8
Layer 1
62
4
5
127
100
AcDbEntity
100
AcDbLine
10
-2.380776
20
257.570613
30
0.0
11
-2.380776
21
250.639613
31
0.0
0
LINE
8
Layer 1
62
4
5
128
100
AcDbEntity
100
AcDbLine
10
-11.380777
20
252.389613
30
0.0
11
4.619223
21
252.389613
31
0.0
0
LINE
8
Layer 1
62
4
5
129
100
AcDbEntity
100
AcDbLine
10
-9.525558
20
264.170613
30
0.0
11
-8.942224
21
260.670613
31
0.0
0
LINE
8
Layer 1
62
4
5
12a
100
AcDbEntity
100
AcDbLine
10
-8.942224
20
260.670613
30
0.0
11
-8.358891
21
264.170613
31
0.0
0
LINE
8
Layer 1
62
4
5
12b
100
AcDbEntity
100
AcDbLine
10
-8.358891
20
264.170613
30
0.0
11
-9.525558
21
264.170613
31
0.0
0
LINE
8
Layer 1
62
4
5
12c
100
AcDbEntity
100
AcDbLine
10
-9.525558
20
264.170613
30
0.0
11
-9.525558
21
264.170613
31
0.0
0
LINE
8
Layer 1
62
4
5
12d
100
AcDbEntity
100
AcDbLine
10
-9.525558
20
254.070613
30
0.0
11
-8.358891
21
254.070613
31
0.0
0
LINE
8
Layer 1
62
4
5
12e
100
AcDbEntity
100
AcDbLine
10
-8.358891
20
254.070613
30
0.0
11
-8.942224
21
257.570613
31
0.0
0
LINE
8
Layer 1
62
4
5
12f
100
AcDbEntity
100
AcDbLine
10
-8.942224
20
257.570613
30
0.0
11
-9.525558
21
254.070613
31
0.0
0
LINE
8
Layer 1
62
4
5
130
100
AcDbEntity
100
AcDbLine
10
-9.525558
20
254.070613
30
0.0
11
-9.525558
21
254.070613
31
0.0
0
LINE
8
Layer 1
62
4
5
131
100
AcDbEntity
100
AcDbLine
10
-4.380776
20
260.670613
30
0.0
11
-10.692225
21
260.670613
31
0.0
0
LINE
8
Layer 1
62
4
5
132
100
AcDbEntity
100
AcDbLine
10
-4.380776
20
257.570613
30
0.0
11
-10.692225
21
257.570613
31
0.0
0
LINE
8
Layer 1
62
4
5
133
100
AcDbEntity
100
AcDbLine
10
-8.942224
20
267.670613
30
0.0
11
-8.942224
21
250.570614
31
0.0
0
LINE
8
Layer 1
62
4
5
134
100
AcDbEntity
100
AcDbLine
10
3.806889
20
284.130613
30
0.0
11
2.640222
21
284.130613
31
0.0
0
LINE
8
Layer 1
62
4
5
135
100
AcDbEntity
100
AcDbLine
10
2.640222
20
284.130613
30
0.0
11
3.223556
21
280.630613
31
0.0
0
LINE
8
Layer 1
62
4
5
136
100
AcDbEntity
100
AcDbLine
10
3.223556
20
280.630613
30
0.0
11
3.806889
21
284.130613
31
0.0
0
LINE
8
Layer 1
62
4
5
137
100
AcDbEntity
100
AcDbLine
10
3.806889
20
284.130613
30
0.0
11
3.806889
21
284.130613
31
0.0
0
LINE
8
Layer 1
62
4
5
138
100
AcDbEntity
100
AcDbLine
10
3.806889
20
276.070613
30
0.0
11
3.223556
21
279.570613
31
0.0
0
LINE
8
Layer 1
62
4
5
139
100
AcDbEntity
100
AcDbLine
10
3.223556
20
279.570613
30
0.0
11
2.640222
21
276.070613
31
0.0
0
LINE
8
Layer 1
62
4
5
13a
100
AcDbEntity
100
AcDbLine
10
2.640222
20
276.070613
30
0.0
11
3.806889
21
276.070613
31
0.0
0
LINE
8
Layer 1
62
4
5
13b
100
AcDbEntity
100
AcDbLine
10
3.806889
20
276.070613
30
0.0
11
3.806889
21
276.070613
31
0.0
0
LINE
8
Layer 1
62
4
5
13c
100
AcDbEntity
100
AcDbLine
10
-2.380776
20
280.630613
30
0.0
11
4.973556
21
280.630613
31
0.0
0
LINE
8
Layer 1
62
4
5
13d
100
AcDbEntity
100
AcDbLine
10
-2.380776
20
279.570613
30
0.0
11
4.973556
21
279.570613
31
0.0
0
LINE
8
Layer 1
62
4
5
13e
100
AcDbEntity
100
AcDbLine
10
3.223556
20
287.630613
30
0.0
11
3.223556
21
272.570613
31
0.0
0
LINE
8
Layer 1
62
4
5
13f
100
AcDbEntity
100
AcDbLine
10
-14.380777
20
196.648400
30
0.0
11
-10.880776
21
197.231733
31
0.0
0
LINE
8
Layer 1
62
4
5
140
100
AcDbEntity
100
AcDbLine
10
-10.880776
20
197.231733
30
0.0
11
-14.380777
21
197.815066
31
0.0
0
LINE
8
Layer 1
62
4
5
141
100
AcDbEntity
100
AcDbLine
10
-14.380777
20
197.815066
30
0.0
11
-14.380777
21
196.648400
31
0.0
0
LINE
8
Layer 1
62
4
5
142
100
AcDbEntity
100
AcDbLine
10
-14.380777
20
196.648400
30
0.0
11
-14.380777
21
196.648400
31
0.0
0
LINE
8
Layer 1
62
4
5
143
100
AcDbEntity
100
AcDbLine
10
-4.880776
20
196.648400
30
0.0
11
-4.880776
21
197.815066
31
0.0
0
LINE
8
Layer 1
62
4
5
144
100
AcDbEntity
100
AcDbLine
10
-4.880776
20
197.815066
30
0.0
11
-8.380777
21
197.231733
31
0.0
0
LINE
8
Layer 1
62
4
5
145
100
AcDbEntity
100
AcDbLine
10
-8.380777
20
197.231733
30
0.0
11
-4.880776
21
196.648400
31
0.0
0
LINE
8
Layer 1
62
4
5
146
100
AcDbEntity
100
AcDbLine
10
-4.880776
20
196.648400
30
0.0
11
-4.880776
21
196.648400
31
0.0
0
LINE
8
Layer 1
62
4
5
147
100
AcDbEntity
100
AcDbLine
10
-10.880776
20
201.282632
30
0.0
11
-10.880776
21
195.481733
31
0.0
0
LINE
8
Layer 1
62
4
5
148
100
AcDbEntity
100
AcDbLine
10
-8.380777
20
201.282632
30
0.0
11
-8.380777
21
195.481733
31
0.0
0
LINE
8
Layer 1
62
4
5
149
100
AcDbEntity
100
AcDbLine
10
-17.880777
20
197.231733
30
0.0
11
12.282105
21
197.231733
31
0.0
0
LINE
8
Layer 1
62
4
5
14a
100
AcDbEntity
100
AcDbLine
10
-3.420777
20
271.480197
30
0.0
11
-3.420777
21
270.313530
31
0.0
0
LINE
8
Layer 1
62
4
5
14b
100
AcDbEntity
100
AcDbLine
10
-3.420777
20
270.313530
30
0.0
11
0.079223
21
270.896864
31
0.0
0
LINE
8
Layer 1
62
4
5
14c
100
AcDbEntity
100
AcDbLine
10
0.079223
20
270.896864
30
0.0
11
-3.420777
21
271.480197
31
0.0
0
LINE
8
Layer 1
62
4
5
14d
100
AcDbEntity
100
AcDbLine
10
-3.420777
20
271.480197
30
0.0
11
-3.420777
21
271.480197
31
0.0
0
LINE
8
Layer 1
62
4
5
14e
100
AcDbEntity
100
AcDbLine
10
5.539224
20
271.480197
30
0.0
11
2.039223
21
270.896864
31
0.0
0
LINE
8
Layer 1
62
4
5
14f
100
AcDbEntity
100
AcDbLine
10
2.039223
20
270.896864
30
0.0
11
5.539224
21
270.313530
31
0.0
0
LINE
8
Layer 1
62
4
5
150
100
AcDbEntity
100
AcDbLine
10
5.539224
20
270.313530
30
0.0
11
5.539224
21
271.480197
31
0.0
0
LINE
8
Layer 1
62
4
5
151
100
AcDbEntity
100
AcDbLine
10
5.539224
20
271.480197
30
0.0
11
5.539224
21
271.480197
31
0.0
0
LINE
8
Layer 1
62
4
5
152
100
AcDbEntity
100
AcDbLine
10
0.079223
20
266.752064
30
0.0
11
0.079223
21
272.646864
31
0.0
0
LINE
8
Layer 1
62
4
5
153
100
AcDbEntity
100
AcDbLine
10
2.039223
20
266.752064
30
0.0
11
2.039223
21
272.646864
31
0.0
0
LINE
8
Layer 1
62
4
5
154
100
AcDbEntity
100
AcDbLine
10
-6.920777
20
270.896864
30
0.0
11
9.039224
21
270.896864
31
0.0
0
LINE
8
Layer 1
62
4
5
155
100
AcDbEntity
100
AcDbLine
10
-3.340776
20
274.559191
30
0.0
11
-6.840777
21
273.975858
31
0.0
0
LINE
8
Layer 1
62
4
5
156
100
AcDbEntity
100
AcDbLine
10
-6.840777
20
273.975858
30
0.0
11
-3.340776
21
273.392525
31
0.0
0
LINE
8
Layer 1
62
4
5
157
100
AcDbEntity
100
AcDbLine
10
-3.340776
20
273.392525
30
0.0
11
-3.340776
21
274.559191
31
0.0
0
LINE
8
Layer 1
62
4
5
158
100
AcDbEntity
100
AcDbLine
10
-3.340776
20
274.559191
30
0.0
11
-3.340776
21
274.559191
31
0.0
0
LINE
8
Layer 1
62
4
5
159
100
AcDbEntity
100
AcDbLine
10
-12.300777
20
274.559191
30
0.0
11
-12.300777
21
273.392525
31
0.0
0
LINE
8
Layer 1
62
4
5
15a
100
AcDbEntity
100
AcDbLine
10
-12.300777
20
273.392525
30
0.0
11
-8.800777
21
273.975858
31
0.0
0
LINE
8
Layer 1
62
4
5
15b
100
AcDbEntity
100
AcDbLine
10
-8.800777
20
273.975858
30
0.0
11
-12.300777
21
274.559191
31
0.0
0
LINE
8
Layer 1
62
4
5
15c
100
AcDbEntity
100
AcDbLine
10
-12.300777
20
274.559191
30
0.0
11
-12.300777
21
274.559191
31
0.0
0
LINE
8
Layer 1
62
4
5
15d
100
AcDbEntity
100
AcDbLine
10
-6.840777
20
266.752064
30
0.0
11
-6.840777
21
275.725858
31
0.0
0
LINE
8
Layer 1
62
4
5
15e
100
AcDbEntity
100
AcDbLine
10
-8.800777
20
266.752064
30
0.0
11
-8.800777
21
275.725858
31
0.0
0
LINE
8
Layer 1
62
4
5
15f
100
AcDbEntity
100
AcDbLine
10
0.159224
20
273.975858
30
0.0
11
-18.680218
21
273.975858
31
0.0
0
LINE
8
Layer 1
62
4
5
160
100
AcDbEntity
100
AcDbLine
10
-5.300776
20
245.681576
30
0.0
11
-5.300776
21
246.848243
31
0.0
0
LINE
8
Layer 1
62
4
5
161
100
AcDbEntity
100
AcDbLine
10
-5.300776
20
246.848243
30
0.0
11
-8.800777
21
246.264910
31
0.0
0
LINE
8
Layer 1
62
4
5
162
100
AcDbEntity
100
AcDbLine
10
-8.800777
20
246.264910
30
0.0
11
-5.300776
21
245.681576
31
0.0
0
LINE
8
Layer 1
62
4
5
163
100
AcDbEntity
100
AcDbLine
10
-5.300776
20
245.681576
30
0.0
11
-5.300776
21
245.681576
31
0.0
0
LINE
8
Layer 1
62
4
5
164
100
AcDbEntity
100
AcDbLine
10
-1.460777
20
245.681576
30
0.0
11
2.039223
21
246.264910
31
0.0
0
LINE
8
Layer 1
62
4
5
165
100
AcDbEntity
100
AcDbLine
10
2.039223
20
246.264910
30
0.0
11
-1.460777
21
246.848243
31
0.0
0
LINE
8
Layer 1
62
4
5
166
100
AcDbEntity
100
AcDbLine
10
-1.460777
20
246.848243
30
0.0
11
-1.460777
21
245.681576
31
0.0
0
LINE
8
Layer 1
62
4
5
167
100
AcDbEntity
100
AcDbLine
10
-1.460777
20
245.681576
30
0.0
11
-1.460777
21
245.681576
31
0.0
0
LINE
8
Layer 1
62
4
5
168
100
AcDbEntity
100
AcDbLine
10
-8.800777
20
260.670613
30
0.0
11
-8.800777
21
244.514910
31
0.0
0
LINE
8
Layer 1
62
4
5
169
100
AcDbEntity
100
AcDbLine
10
2.039223
20
260.670613
30
0.0
11
2.039223
21
244.514910
31
0.0
0
LINE
8
Layer 1
62
4
5
16a
100
AcDbEntity
100
AcDbLine
10
-8.800777
20
246.264910
30
0.0
11
2.039223
21
246.264910
31
0.0
0
LINE
8
Layer 1
62
4
5
16b
100
AcDbEntity
100
AcDbLine
10
-11.320777
20
269.140171
30
0.0
11
-11.320777
21
267.973504
31
0.0
0
LINE
8
Layer 1
62
4
5
16c
100
AcDbEntity
100
AcDbLine
10
-11.320777
20
267.973504
30
0.0
11
-7.820777
21
268.556838
31
0.0
0
LINE
8
Layer 1
62
4
5
16d
100
AcDbEntity
100
AcDbLine
10
-7.820777
20
268.556838
30
0.0
11
-11.320777
21
269.140171
31
0.0
0
LINE
8
Layer 1
62
4
5
16e
100
AcDbEntity
100
AcDbLine
10
-11.320777
20
269.140171
30
0.0
11
-11.320777
21
269.140171
31
0.0
0
LINE
8
Layer 1
62
4
5
16f
100
AcDbEntity
100
AcDbLine
10
4.559224
20
269.140171
30
0.0
11
1.059223
21
268.556838
31
0.0
0
LINE
8
Layer 1
62
4
5
170
100
AcDbEntity
100
AcDbLine
10
1.059223
20
268.556838
30
0.0
11
4.559224
21
267.973504
31
0.0
0
LINE
8
Layer 1
62
4
5
171
100
AcDbEntity
100
AcDbLine
10
4.559224
20
267.973504
30
0.0
11
4.559224
21
269.140171
31
0.0
0
LINE
8
Layer 1
62
4
5
172
100
AcDbEntity
100
AcDbLine
10
4.559224
20
269.140171
30
0.0
11
4.559224
21
269.140171
31
0.0
0
LINE
8
Layer 1
62
4
5
173
100
AcDbEntity
100
AcDbLine
10
-7.820777
20
266.752064
30
0.0
11
-7.820777
21
270.306837
31
0.0
0
LINE
8
Layer 1
62
4
5
174
100
AcDbEntity
100
AcDbLine
10
1.059223
20
266.752064
30
0.0
11
1.059223
21
270.306837
31
0.0
0
LINE
8
Layer 1
62
4
5
175
100
AcDbEntity
100
AcDbLine
10
-14.820777
20
268.556838
30
0.0
11
18.715645
21
268.556838
31
0.0
0
LINE
8
fanClip
62
4
5
176
100
AcDbEntity
100
AcDbLine
10
169.344173
20
129.481895
30
0.0
11
162.099608
21
122.277958
31
0.0
0
LINE
8
fanClip
62
4
5
177
100
AcDbEntity
100
AcDbLine
10
162.099608
20
122.277958
30
0.0
11
165.073582
21
119.735202
31
0.0
0
LINE
8
fanClip
62
4
5
178
100
AcDbEntity
100
AcDbLine
10
165.073582
20
119.735202
30
0.0
11
167.681262
21
117.212614
31
0.0
0
LINE
8
fanClip
62
4
5
179
100
AcDbEntity
100
AcDbLine
10
167.681262
20
117.212614
30
0.0
11
169.926548
21
114.704825
31
0.0
0
LINE
8
fanClip
62
4
5
17a
100
AcDbEntity
100
AcDbLine
10
169.926548
20
114.704825
30
0.0
11
171.813342
21
112.206462
31
0.0
0
LINE
8
fanClip
62
4
5
17b
100
AcDbEntity
100
AcDbLine
10
171.813342
20
112.206462
30
0.0
11
173.345545
21
109.712155
31
0.0
0
LINE
8
fanClip
62
4
5
17c
100
AcDbEntity
100
AcDbLine
10
173.345545
20
109.712155
30
0.0
11
174.527059
21
107.216533
31
0.0
0
LINE
8
fanClip
62
4
5
17d
100
AcDbEntity
100
AcDbLine
10
174.527059
20
107.216533
30
0.0
11
175.361784
21
104.714224
31
0.0
0
LINE
8
fanClip
62
4
5
17e
100
AcDbEntity
100
AcDbLine
10
175.361784
20
104.714224
30
0.0
11
175.853622
21
102.199859
31
0.0
0
LINE
8
fanClip
62
4
5
17f
100
AcDbEntity
100
AcDbLine
10
175.853622
20
102.199859
30
0.0
11
176.006474
21
99.668065
31
0.0
0
LINE
8
fanClip
62
4
5
180
100
AcDbEntity
100
AcDbLine
10
176.006474
20
99.668065
30
0.0
11
175.824241
21
97.113471
31
0.0
0
LINE
8
fanClip
62
4
5
181
100
AcDbEntity
100
AcDbLine
10
175.824241
20
97.113471
30
0.0
11
175.310826
21
94.530708
31
0.0
0
LINE
8
fanClip
62
4
5
182
100
AcDbEntity
100
AcDbLine
10
175.310826
20
94.530708
30
0.0
11
174.470128
21
91.914403
31
0.0
0
LINE
8
fanClip
62
4
5
183
100
AcDbEntity
100
AcDbLine
10
174.470128
20
91.914403
30
0.0
11
173.306049
21
89.259186
31
0.0
0
LINE
8
fanClip
62
4
5
184
100
AcDbEntity
100
AcDbLine
10
173.306049
20
89.259186
30
0.0
11
171.822490
21
86.559685
31
0.0
0
LINE
8
fanClip
62
4
5
185
100
AcDbEntity
100
AcDbLine
10
171.822490
20
86.559685
30
0.0
11
170.023353
21
83.810530
31
0.0
0
LINE
8
fanClip
62
4
5
186
100
AcDbEntity
100
AcDbLine
10
170.023353
20
83.810530
30
0.0
11
167.912539
21
81.006350
31
0.0
0
LINE
8
fanClip
62
4
5
187
100
AcDbEntity
100
AcDbLine
10
167.912539
20
81.006350
30
0.0
11
167.155901
21
80.385137
31
0.0
0
LINE
8
fanClip
62
4
5
188
100
AcDbEntity
100
AcDbLine
10
167.155901
20
80.385137
30
0.0
11
192.478044
21
80.385137
31
0.0
0
LINE
8
fanClip
62
4
5
189
100
AcDbEntity
100
AcDbLine
10
192.478044
20
80.385137
30
0.0
11
192.656128
21
80.494958
31
0.0
0
LINE
8
fanClip
62
4
5
18a
100
AcDbEntity
100
AcDbLine
10
192.656128
20
80.494958
30
0.0
11
191.825711
21
86.796026
31
0.0
0
LINE
8
fanClip
62
4
5
18b
100
AcDbEntity
100
AcDbLine
10
191.825711
20
86.796026
30
0.0
11
190.812573
21
92.986312
31
0.0
0
LINE
8
fanClip
62
4
5
18c
100
AcDbEntity
100
AcDbLine
10
190.812573
20
92.986312
30
0.0
11
189.410420
21
99.095822
31
0.0
0
LINE
8
fanClip
62
4
5
18d
100
AcDbEntity
100
AcDbLine
10
189.410420
20
99.095822
30
0.0
11
188.498996
21
102.129662
31
0.0
0
LINE
8
fanClip
62
4
5
18e
100
AcDbEntity
100
AcDbLine
10
188.498996
20
102.129662
30
0.0
11
187.412959
21
105.154560
31
0.0
0
LINE
8
fanClip
62
4
5
18f
100
AcDbEntity
100
AcDbLine
10
187.412959
20
105.154560
30
0.0
11
186.126522
21
108.174266
31
0.0
0
LINE
8
fanClip
62
4
5
190
100
AcDbEntity
100
AcDbLine
10
186.126522
20
108.174266
30
0.0
11
184.613897
21
111.192532
31
0.0
0
LINE
8
fanClip
62
4
5
191
100
AcDbEntity
100
AcDbLine
10
184.613897
20
111.192532
30
0.0
11
182.849300
21
114.213106
31
0.0
0
LINE
8
fanClip
62
4
5
192
100
AcDbEntity
100
AcDbLine
10
182.849300
20
114.213106
30
0.0
11
180.806941
21
117.239741
31
0.0
0
LINE
8
fanClip
62
4
5
193
100
AcDbEntity
100
AcDbLine
10
180.806941
20
117.239741
30
0.0
11
178.461036
21
120.276187
31
0.0
0
LINE
8
fanClip
62
4
5
194
100
AcDbEntity
100
AcDbLine
10
178.461036
20
120.276187
30
0.0
11
175.785798
21
123.326194
31
0.0
0
LINE
8
fanClip
62
4
5
195
100
AcDbEntity
100
AcDbLine
10
175.785798
20
123.326194
30
0.0
11
172.755439
21
126.393513
31
0.0
0
LINE
8
fanClip
62
4
5
196
100
AcDbEntity
100
AcDbLine
10
172.755439
20
126.393513
30
0.0
11
169.344173
21
129.481895
31
0.0
0
LINE
8
fanClip
62
4
5
197
100
AcDbEntity
100
AcDbLine
10
169.344173
20
129.481895
30
0.0
11
169.344173
21
129.481895
31
0.0
0
LINE
8
fanShroud
62
4
5
198
100
AcDbEntity
100
AcDbLine
10
199.162332
20
80.385137
30
0.0
11
199.162332
21
84.401108
31
0.0
0
LINE
8
fanShroud
62
4
5
199
100
AcDbEntity
100
AcDbLine
10
199.162332
20
84.401108
30
0.0
11
199.162332
21
118.688856
31
0.0
0
LINE
8
fanShroud
62
4
5
19a
100
AcDbEntity
100
AcDbLine
10
199.162332
20
118.688856
30
0.0
11
199.160159
21
123.877839
31
0.0
0
LINE
8
fanShroud
62
4
5
19b
100
AcDbEntity
100
AcDbLine
10
199.160159
20
123.877839
30
0.0
11
197.577138
21
123.876710
31
0.0
0
LINE
8
fanShroud
62
4
5
19c
100
AcDbEntity
100
AcDbLine
10
197.577138
20
123.876710
30
0.0
11
187.602338
21
123.876710
31
0.0
0
LINE
8
fanShroud
62
4
5
19d
100
AcDbEntity
100
AcDbLine
10
187.602338
20
123.876710
30
0.0
11
188.035963
21
118.641537
31
0.0
0
LINE
8
fanShroud
62
4
5
19e
100
AcDbEntity
100
AcDbLine
10
188.035963
20
118.641537
30
0.0
11
188.202433
21
114.936195
31
0.0
0
LINE
8
fanShroud
62
4
5
19f
100
AcDbEntity
100
AcDbLine
10
188.202433
20
114.936195
30
0.0
11
188.120359
21
112.574467
31
0.0
0
LINE
8
fanShroud
62
4
5
1a0
100
AcDbEntity
100
AcDbLine
10
188.120359
20
112.574467
30
0.0
11
187.808349
21
111.370137
31
0.0
0
LINE
8
fanShroud
62
4
5
1a1
100
AcDbEntity
100
AcDbLine
10
187.808349
20
111.370137
30
0.0
11
187.571935
21
111.143804
31
0.0
0
LINE
8
fanShroud
62
4
5
1a2
100
AcDbEntity
100
AcDbLine
10
187.571935
20
111.143804
30
0.0
11
187.285015
21
111.136990
31
0.0
0
LINE
8
fanShroud
62
4
5
1a3
100
AcDbEntity
100
AcDbLine
10
187.285015
20
111.136990
30
0.0
11
186.568968
21
111.688808
31
0.0
0
LINE
8
fanShroud
62
4
5
1a4
100
AcDbEntity
100
AcDbLine
10
186.568968
20
111.688808
30
0.0
11
184.633175
21
114.402476
31
0.0
0
LINE
8
fanShroud
62
4
5
1a5
100
AcDbEntity
100
AcDbLine
10
184.633175
20
114.402476
30
0.0
11
182.010783
21
118.000017
31
0.0
0
LINE
8
fanShroud
62
4
5
1a6
100
AcDbEntity
100
AcDbLine
10
182.010783
20
118.000017
30
0.0
11
178.668812
21
121.911708
31
0.0
0
LINE
8
fanShroud
62
4
5
1a7
100
AcDbEntity
100
AcDbLine
10
178.668812
20
121.911708
30
0.0
11
174.691961
21
126.059928
31
0.0
0
LINE
8
fanShroud
62
4
5
1a8
100
AcDbEntity
100
AcDbLine
10
174.691961
20
126.059928
30
0.0
11
170.164927
21
130.367056
31
0.0
0
LINE
8
fanShroud
62
4
5
1a9
100
AcDbEntity
100
AcDbLine
10
170.164927
20
130.367056
30
0.0
11
168.474083
21
128.557165
31
0.0
0
LINE
8
fanShroud
62
4
5
1aa
100
AcDbEntity
100
AcDbLine
10
168.474083
20
128.557165
30
0.0
11
173.319784
21
123.548586
31
0.0
0
LINE
8
fanShroud
62
4
5
1ab
100
AcDbEntity
100
AcDbLine
10
173.319784
20
123.548586
30
0.0
11
177.521916
21
118.809678
31
0.0
0
LINE
8
fanShroud
62
4
5
1ac
100
AcDbEntity
100
AcDbLine
10
177.521916
20
118.809678
30
0.0
11
181.124096
21
114.060903
31
0.0
0
LINE
8
fanShroud
62
4
5
1ad
100
AcDbEntity
100
AcDbLine
10
181.124096
20
114.060903
30
0.0
11
182.713835
21
111.595460
31
0.0
0
LINE
8
fanShroud
62
4
5
1ae
100
AcDbEntity
100
AcDbLine
10
182.713835
20
111.595460
30
0.0
11
184.169943
21
109.022723
31
0.0
0
LINE
8
fanShroud
62
4
5
1af
100
AcDbEntity
100
AcDbLine
10
184.169943
20
109.022723
30
0.0
11
185.497871
21
106.307752
31
0.0
0
LINE
8
fanShroud
62
4
5
1b0
100
AcDbEntity
100
AcDbLine
10
185.497871
20
106.307752
30
0.0
11
186.703073
21
103.415602
31
0.0
0
LINE
8
fanShroud
62
4
5
1b1
100
AcDbEntity
100
AcDbLine
10
186.703073
20
103.415602
30
0.0
11
187.790999
21
100.311332
31
0.0
0
LINE
8
fanShroud
62
4
5
1b2
100
AcDbEntity
100
AcDbLine
10
187.790999
20
100.311332
30
0.0
11
188.767103
21
96.960001
31
0.0
0
LINE
8
fanShroud
62
4
5
1b3
100
AcDbEntity
100
AcDbLine
10
188.767103
20
96.960001
30
0.0
11
189.636837
21
93.326664
31
0.0
0
LINE
8
fanShroud
62
4
5
1b4
100
AcDbEntity
100
AcDbLine
10
189.636837
20
93.326664
30
0.0
11
190.405653
21
89.376382
31
0.0
0
LINE
8
fanShroud
62
4
5
1b5
100
AcDbEntity
100
AcDbLine
10
190.405653
20
89.376382
30
0.0
11
191.662338
21
80.385207
31
0.0
0
LINE
8
fanShroud
62
4
5
1b6
100
AcDbEntity
100
AcDbLine
10
191.662338
20
80.385207
30
0.0
11
194.162337
21
80.385207
31
0.0
0
LINE
8
fanShroud
62
4
5
1b7
100
AcDbEntity
100
AcDbLine
10
194.162337
20
80.385207
30
0.0
11
199.162332
21
80.385137
31
0.0
0
LINE
8
fanShroud
62
4
5
1b8
100
AcDbEntity
100
AcDbLine
10
165.397998
20
80.385137
30
0.0
11
169.381210
21
80.385137
31
0.0
0
LINE
8
fanShroud
62
4
5
1b9
100
AcDbEntity
100
AcDbLine
10
169.381210
20
80.385137
30
0.0
11
171.925521
21
83.833115
31
0.0
0
LINE
8
fanShroud
62
4
5
1ba
100
AcDbEntity
100
AcDbLine
10
171.925521
20
83.833115
30
0.0
11
173.970898
21
87.112451
31
0.0
0
LINE
8
fanShroud
62
4
5
1bb
100
AcDbEntity
100
AcDbLine
10
173.970898
20
87.112451
30
0.0
11
175.540706
21
90.237777
31
0.0
0
LINE
8
fanShroud
62
4
5
1bc
100
AcDbEntity
100
AcDbLine
10
175.540706
20
90.237777
30
0.0
11
176.658313
21
93.223730
31
0.0
0
LINE
8
fanShroud
62
4
5
1bd
100
AcDbEntity
100
AcDbLine
10
176.658313
20
93.223730
30
0.0
11
177.347085
21
96.084945
31
0.0
0
LINE
8
fanShroud
62
4
5
1be
100
AcDbEntity
100
AcDbLine
10
177.347085
20
96.084945
30
0.0
11
177.630388
21
98.836055
31
0.0
0
LINE
8
fanShroud
62
4
5
1bf
100
AcDbEntity
100
AcDbLine
10
177.630388
20
98.836055
30
0.0
11
177.531590
21
101.491697
31
0.0
0
LINE
8
fanShroud
62
4
5
1c0
100
AcDbEntity
100
AcDbLine
10
177.531590
20
101.491697
30
0.0
11
177.074056
21
104.066505
31
0.0
0
LINE
8
fanShroud
62
4
5
1c1
100
AcDbEntity
100
AcDbLine
10
177.074056
20
104.066505
30
0.0
11
176.281154
21
106.575114
31
0.0
0
LINE
8
fanShroud
62
4
5
1c2
100
AcDbEntity
100
AcDbLine
10
176.281154
20
106.575114
30
0.0
11
175.176249
21
109.032159
31
0.0
0
LINE
8
fanShroud
62
4
5
1c3
100
AcDbEntity
100
AcDbLine
10
175.176249
20
109.032159
30
0.0
11
173.782709
21
111.452275
31
0.0
0
LINE
8
fanShroud
62
4
5
1c4
100
AcDbEntity
100
AcDbLine
10
173.782709
20
111.452275
30
0.0
11
172.123901
21
113.850097
31
0.0
0
LINE
8
fanShroud
62
4
5
1c5
100
AcDbEntity
100
AcDbLine
10
172.123901
20
113.850097
30
0.0
11
170.223190
21
116.240259
31
0.0
0
LINE
8
fanShroud
62
4
5
1c6
100
AcDbEntity
100
AcDbLine
10
170.223190
20
116.240259
30
0.0
11
168.103944
21
118.637397
31
0.0
0
LINE
8
fanShroud
62
4
5
1c7
100
AcDbEntity
100
AcDbLine
10
168.103944
20
118.637397
30
0.0
11
163.303311
21
123.511139
31
0.0
0
LINE
8
fanShroud
62
4
5
1c8
100
AcDbEntity
100
AcDbLine
10
163.303311
20
123.511139
30
0.0
11
161.101809
21
121.345146
31
0.0
0
LINE
8
fanShroud
62
4
5
1c9
100
AcDbEntity
100
AcDbLine
10
161.101809
20
121.345146
30
0.0
11
164.013833
21
118.757946
31
0.0
0
LINE
8
fanShroud
62
4
5
1ca
100
AcDbEntity
100
AcDbLine
10
164.013833
20
118.757946
30
0.0
11
166.562906
21
116.235758
31
0.0
0
LINE
8
fanShroud
62
4
5
1cb
100
AcDbEntity
100
AcDbLine
10
166.562906
20
116.235758
30
0.0
11
168.754187
21
113.768710
31
0.0
0
LINE
8
fanShroud
62
4
5
1cc
100
AcDbEntity
100
AcDbLine
10
168.754187
20
113.768710
30
0.0
11
170.592832
21
111.346933
31
0.0
0
LINE
8
fanShroud
62
4
5
1cd
100
AcDbEntity
100
AcDbLine
10
170.592832
20
111.346933
30
0.0
11
172.084000
21
108.960558
31
0.0
0
LINE
8
fanShroud
62
4
5
1ce
100
AcDbEntity
100
AcDbLine
10
172.084000
20
108.960558
30
0.0
11
173.232847
21
106.599715
31
0.0
0
LINE
8
fanShroud
62
4
5
1cf
100
AcDbEntity
100
AcDbLine
10
173.232847
20
106.599715
30
0.0
11
174.044532
21
104.254535
31
0.0
0
LINE
8
fanShroud
62
4
5
1d0
100
AcDbEntity
100
AcDbLine
10
174.044532
20
104.254535
30
0.0
11
174.524212
21
101.915147
31
0.0
0
LINE
8
fanShroud
62
4
5
1d1
100
AcDbEntity
100
AcDbLine
10
174.524212
20
101.915147
30
0.0
11
174.677045
21
99.571682
31
0.0
0
LINE
8
fanShroud
62
4
5
1d2
100
AcDbEntity
100
AcDbLine
10
174.677045
20
99.571682
30
0.0
11
174.508187
21
97.214271
31
0.0
0
LINE
8
fanShroud
62
4
5
1d3
100
AcDbEntity
100
AcDbLine
10
174.508187
20
97.214271
30
0.0
11
174.022797
21
94.833044
31
0.0
0
LINE
8
fanShroud
62
4
5
1d4
100
AcDbEntity
100
AcDbLine
10
174.022797
20
94.833044
30
0.0
11
173.226032
21
92.418130
31
0.0
0
LINE
8
fanShroud
62
4
5
1d5
100
AcDbEntity
100
AcDbLine
10
173.226032
20
92.418130
30
0.0
11
172.123050
21
89.959662
31
0.0
0
LINE
8
fanShroud
62
4
5
1d6
100
AcDbEntity
100
AcDbLine
10
172.123050
20
89.959662
30
0.0
11
170.719009
21
87.447768
31
0.0
0
LINE
8
fanShroud
62
4
5
1d7
100
AcDbEntity
100
AcDbLine
10
170.719009
20
87.447768
30
0.0
11
169.019065
21
84.872579
31
0.0
0
LINE
8
fanShroud
62
4
5
1d8
100
AcDbEntity
100
AcDbLine
10
169.019065
20
84.872579
30
0.0
11
167.028376
21
82.224227
31
0.0
0
LINE
8
fanShroud
62
4
5
1d9
100
AcDbEntity
100
AcDbLine
10
167.028376
20
82.224227
30
0.0
11
165.397998
21
80.385137
31
0.0
0
LINE
8
statorClip
62
4
5
1da
100
AcDbEntity
100
AcDbLine
10
157.218744
20
127.406255
30
0.0
11
165.656246
21
134.578129
31
0.0
0
LINE
8
statorClip
62
4
5
1db
100
AcDbEntity
100
AcDbLine
10
165.656246
20
134.578129
30
0.0
11
164.568932
21
136.873141
31
0.0
0
LINE
8
statorClip
62
4
5
1dc
100
AcDbEntity
100
AcDbLine
10
164.568932
20
136.873141
30
0.0
11
163.701635
21
139.617814
31
0.0
0
LINE
8
statorClip
62
4
5
1dd
100
AcDbEntity
100
AcDbLine
10
163.701635
20
139.617814
30
0.0
11
163.424297
21
141.172041
31
0.0
0
LINE
8
statorClip
62
4
5
1de
100
AcDbEntity
100
AcDbLine
10
163.424297
20
141.172041
30
0.0
11
163.290526
21
142.854603
31
0.0
0
LINE
8
statorClip
62
4
5
1df
100
AcDbEntity
100
AcDbLine
10
163.290526
20
142.854603
30
0.0
11
163.329845
21
144.670809
31
0.0
0
LINE
8
statorClip
62
4
5
1e0
100
AcDbEntity
100
AcDbLine
10
163.329845
20
144.670809
30
0.0
11
163.571775
21
146.625964
31
0.0
0
LINE
8
statorClip
62
4
5
1e1
100
AcDbEntity
100
AcDbLine
10
163.571775
20
146.625964
30
0.0
11
164.045837
21
148.725377
31
0.0
0
LINE
8
statorClip
62
4
5
1e2
100
AcDbEntity
100
AcDbLine
10
164.045837
20
148.725377
30
0.0
11
164.781552
21
150.974354
31
0.0
0
LINE
8
statorClip
62
4
5
1e3
100
AcDbEntity
100
AcDbLine
10
164.781552
20
150.974354
30
0.0
11
165.808441
21
153.378202
31
0.0
0
LINE
8
statorClip
62
4
5
1e4
100
AcDbEntity
100
AcDbLine
10
165.808441
20
153.378202
30
0.0
11
167.156025
21
155.942228
31
0.0
0
LINE
8
statorClip
62
4
5
1e5
100
AcDbEntity
100
AcDbLine
10
167.156025
20
155.942228
30
0.0
11
168.853827
21
158.671739
31
0.0
0
LINE
8
statorClip
62
4
5
1e6
100
AcDbEntity
100
AcDbLine
10
168.853827
20
158.671739
30
0.0
11
170.931367
21
161.572042
31
0.0
0
LINE
8
statorClip
62
4
5
1e7
100
AcDbEntity
100
AcDbLine
10
170.931367
20
161.572042
30
0.0
11
173.418166
21
164.648445
31
0.0
0
LINE
8
statorClip
62
4
5
1e8
100
AcDbEntity
100
AcDbLine
10
173.418166
20
164.648445
30
0.0
11
176.343745
21
167.906253
31
0.0
0
LINE
8
statorClip
62
4
5
1e9
100
AcDbEntity
100
AcDbLine
10
176.343745
20
167.906253
30
0.0
11
168.046872
21
174.672294
31
0.0
0
LINE
8
statorClip
62
4
5
1ea
100
AcDbEntity
100
AcDbLine
10
168.046872
20
174.672294
30
0.0
11
164.164297
21
169.776009
31
0.0
0
LINE
8
statorClip
62
4
5
1eb
100
AcDbEntity
100
AcDbLine
10
164.164297
20
169.776009
30
0.0
11
160.903630
21
165.203347
31
0.0
0
LINE
8
statorClip
62
4
5
1ec
100
AcDbEntity
100
AcDbLine
10
160.903630
20
165.203347
30
0.0
11
158.223197
21
160.940450
31
0.0
0
LINE
8
statorClip
62
4
5
1ed
100
AcDbEntity
100
AcDbLine
10
158.223197
20
160.940450
30
0.0
11
156.081330
21
156.973461
31
0.0
0
LINE
8
statorClip
62
4
5
1ee
100
AcDbEntity
100
AcDbLine
10
156.081330
20
156.973461
30
0.0
11
154.436356
21
153.288523
31
0.0
0
LINE
8
statorClip
62
4
5
1ef
100
AcDbEntity
100
AcDbLine
10
154.436356
20
153.288523
30
0.0
11
153.246606
21
149.871777
31
0.0
0
LINE
8
statorClip
62
4
5
1f0
100
AcDbEntity
100
AcDbLine
10
153.246606
20
149.871777
30
0.0
11
152.470407
21
146.709367
31
0.0
0
LINE
8
statorClip
62
4
5
1f1
100
AcDbEntity
100
AcDbLine
10
152.470407
20
146.709367
30
0.0
11
152.066088
21
143.787434
31
0.0
0
LINE
8
statorClip
62
4
5
1f2
100
AcDbEntity
100
AcDbLine
10
152.066088
20
143.787434
30
0.0
11
151.991980
21
141.092121
31
0.0
0
LINE
8
statorClip
62
4
5
1f3
100
AcDbEntity
100
AcDbLine
10
151.991980
20
141.092121
30
0.0
11
152.206411
21
138.609571
31
0.0
0
LINE
8
statorClip
62
4
5
1f4
100
AcDbEntity
100
AcDbLine
10
152.206411
20
138.609571
30
0.0
11
152.667710
21
136.325925
31
0.0
0
LINE
8
statorClip
62
4
5
1f5
100
AcDbEntity
100
AcDbLine
10
152.667710
20
136.325925
30
0.0
11
153.334207
21
134.227327
31
0.0
0
LINE
8
statorClip
62
4
5
1f6
100
AcDbEntity
100
AcDbLine
10
153.334207
20
134.227327
30
0.0
11
154.164229
21
132.299918
31
0.0
0
LINE
8
statorClip
62
4
5
1f7
100
AcDbEntity
100
AcDbLine
10
154.164229
20
132.299918
30
0.0
11
155.116107
21
130.529842
31
0.0
0
LINE
8
statorClip
62
4
5
1f8
100
AcDbEntity
100
AcDbLine
10
155.116107
20
130.529842
30
0.0
11
157.218744
21
127.406255
31
0.0
0
LINE
8
statorClip
62
4
5
1f9
100
AcDbEntity
100
AcDbLine
10
157.218744
20
127.406255
30
0.0
11
157.218744
21
127.406255
31
0.0
0
LINE
8
base
62
4
5
1fa
100
AcDbEntity
100
AcDbLine
10
199.161798
20
78.068184
30
0.0
11
192.189586
21
78.068184
31
0.0
0
LINE
8
base
62
4
5
1fb
100
AcDbEntity
100
AcDbLine
10
192.189586
20
78.068184
30
0.0
11
192.173382
21
76.546813
31
0.0
0
LINE
8
base
62
4
5
1fc
100
AcDbEntity
100
AcDbLine
10
192.173382
20
76.546813
30
0.0
11
191.978989
21
75.044713
31
0.0
0
LINE
8
base
62
4
5
1fd
100
AcDbEntity
100
AcDbLine
10
191.978989
20
75.044713
30
0.0
11
191.606530
21
73.572767
31
0.0
0
LINE
8
base
62
4
5
1fe
100
AcDbEntity
100
AcDbLine
10
191.606530
20
73.572767
30
0.0
11
191.056130
21
72.141861
31
0.0
0
LINE
8
base
62
4
5
1ff
100
AcDbEntity
100
AcDbLine
10
191.056130
20
72.141861
30
0.0
11
190.327912
21
70.762879
31
0.0
0
LINE
8
base
62
4
5
200
100
AcDbEntity
100
AcDbLine
10
190.327912
20
70.762879
30
0.0
11
189.422003
21
69.446705
31
0.0
0
LINE
8
base
62
4
5
201
100
AcDbEntity
100
AcDbLine
10
189.422003
20
69.446705
30
0.0
11
188.338525
21
68.204223
31
0.0
0
LINE
8
base
62
4
5
202
100
AcDbEntity
100
AcDbLine
10
188.338525
20
68.204223
30
0.0
11
187.077603
21
67.046318
31
0.0
0
LINE
8
base
62
4
5
203
100
AcDbEntity
100
AcDbLine
10
187.077603
20
67.046318
30
0.0
11
185.639361
21
65.983875
31
0.0
0
LINE
8
base
62
4
5
204
100
AcDbEntity
100
AcDbLine
10
185.639361
20
65.983875
30
0.0
11
184.023924
21
65.027776
31
0.0
0
LINE
8
base
62
4
5
205
100
AcDbEntity
100
AcDbLine
10
184.023924
20
65.027776
30
0.0
11
182.231416
21
64.188908
31
0.0
0
LINE
8
base
62
4
5
206
100
AcDbEntity
100
AcDbLine
10
182.231416
20
64.188908
30
0.0
11
180.261961
21
63.478153
31
0.0
0
LINE
8
base
62
4
5
207
100
AcDbEntity
100
AcDbLine
10
180.261961
20
63.478153
30
0.0
11
178.115684
21
62.906398
31
0.0
0
LINE
8
base
62
4
5
208
100
AcDbEntity
100
AcDbLine
10
178.115684
20
62.906398
30
0.0
11
175.792709
21
62.484525
31
0.0
0
LINE
8
base
62
4
5
209
100
AcDbEntity
100
AcDbLine
10
175.792709
20
62.484525
30
0.0
11
173.293161
21
62.223419
31
0.0
0
LINE
8
base
62
4
5
20a
100
AcDbEntity
100
AcDbLine
10
173.293161
20
62.223419
30
0.0
11
170.617162
21
62.133965
31
0.0
0
LINE
8
base
62
4
5
20b
100
AcDbEntity
100
AcDbLine
10
170.617162
20
62.133965
30
0.0
11
145.227266
21
62.133965
31
0.0
0
LINE
8
base
62
4
5
20c
100
AcDbEntity
100
AcDbLine
10
145.227266
20
62.133965
30
0.0
11
142.960461
21
62.055075
31
0.0
0
LINE
8
base
62
4
5
20d
100
AcDbEntity
100
AcDbLine
10
142.960461
20
62.055075
30
0.0
11
140.967616
21
61.791558
31
0.0
0
LINE
8
base
62
4
5
20e
100
AcDbEntity
100
AcDbLine
10
140.967616
20
61.791558
30
0.0
11
139.291732
21
61.303148
31
0.0
0
LINE
8
base
62
4
5
20f
100
AcDbEntity
100
AcDbLine
10
139.291732
20
61.303148
30
0.0
11
137.975805
21
60.549578
31
0.0
0
LINE
8
base
62
4
5
210
100
AcDbEntity
100
AcDbLine
10
137.975805
20
60.549578
30
0.0
11
137.062836
21
59.490580
31
0.0
0
LINE
8
base
62
4
5
211
100
AcDbEntity
100
AcDbLine
10
137.062836
20
59.490580
30
0.0
11
136.595821
21
58.085887
31
0.0
0
LINE
8
base
62
4
5
212
100
AcDbEntity
100
AcDbLine
10
136.595821
20
58.085887
30
0.0
11
136.617760
21
56.295232
31
0.0
0
LINE
8
base
62
4
5
213
100
AcDbEntity
100
AcDbLine
10
136.617760
20
56.295232
30
0.0
11
137.171650
21
54.078347
31
0.0
0
LINE
8
base
62
4
5
214
100
AcDbEntity
100
AcDbLine
10
137.171650
20
54.078347
30
0.0
11
199.161798
21
54.078347
31
0.0
0
LINE
8
base
62
4
5
215
100
AcDbEntity
100
AcDbLine
10
199.161798
20
54.078347
30
0.0
11
199.161798
21
78.068184
31
0.0
0
LINE
8
casing
62
4
5
216
100
AcDbEntity
100
AcDbLine
10
167.004998
20
77.752230
30
0.0
11
166.187487
21
76.637304
31
0.0
0
LINE
8
casing
62
4
5
217
100
AcDbEntity
100
AcDbLine
10
166.187487
20
76.637304
30
0.0
11
165.140681
21
75.798122
31
0.0
0
LINE
8
casing
62
4
5
218
100
AcDbEntity
100
AcDbLine
10
165.140681
20
75.798122
30
0.0
11
163.928125
21
75.225050
31
0.0
0
LINE
8
casing
62
4
5
219
100
AcDbEntity
100
AcDbLine
10
163.928125
20
75.225050
30
0.0
11
162.613361
21
74.908451
31
0.0
0
LINE
8
casing
62
4
5
21a
100
AcDbEntity
100
AcDbLine
10
162.613361
20
74.908451
30
0.0
11
161.259931
21
74.838691
31
0.0
0
LINE
8
casing
62
4
5
21b
100
AcDbEntity
100
AcDbLine
10
161.259931
20
74.838691
30
0.0
11
159.931379
21
75.006135
31
0.0
0
LINE
8
casing
62
4
5
21c
100
AcDbEntity
100
AcDbLine
10
159.931379
20
75.006135
30
0.0
11
158.691247
21
75.401146
31
0.0
0
LINE
8
casing
62
4
5
21d
100
AcDbEntity
100
AcDbLine
10
158.691247
20
75.401146
30
0.0
11
157.603080
21
76.014090
31
0.0
0
LINE
8
casing
62
4
5
21e
100
AcDbEntity
100
AcDbLine
10
157.603080
20
76.014090
30
0.0
11
156.730419
21
76.835332
31
0.0
0
LINE
8
casing
62
4
5
21f
100
AcDbEntity
100
AcDbLine
10
156.730419
20
76.835332
30
0.0
11
156.136807
21
77.855235
31
0.0
0
LINE
8
casing
62
4
5
220
100
AcDbEntity
100
AcDbLine
10
156.136807
20
77.855235
30
0.0
11
155.885789
21
79.064166
31
0.0
0
LINE
8
casing
62
4
5
221
100
AcDbEntity
100
AcDbLine
10
155.885789
20
79.064166
30
0.0
11
156.040905
21
80.452488
31
0.0
0
LINE
8
casing
62
4
5
222
100
AcDbEntity
100
AcDbLine
10
156.040905
20
80.452488
30
0.0
11
156.665700
21
82.010567
31
0.0
0
LINE
8
casing
62
4
5
223
100
AcDbEntity
100
AcDbLine
10
156.665700
20
82.010567
30
0.0
11
157.823717
21
83.728767
31
0.0
0
LINE
8
casing
62
4
5
224
100
AcDbEntity
100
AcDbLine
10
157.823717
20
83.728767
30
0.0
11
159.578498
21
85.597453
31
0.0
0
LINE
8
casing
62
4
5
225
100
AcDbEntity
100
AcDbLine
10
159.578498
20
85.597453
30
0.0
11
161.993586
21
87.606990
31
0.0
0
LINE
8
casing
62
4
5
226
100
AcDbEntity
100
AcDbLine
10
161.993586
20
87.606990
30
0.0
11
165.097556
21
89.652351
31
0.0
0
LINE
8
casing
62
4
5
227
100
AcDbEntity
100
AcDbLine
10
165.097556
20
89.652351
30
0.0
11
166.648298
21
90.668891
31
0.0
0
LINE
8
casing
62
4
5
228
100
AcDbEntity
100
AcDbLine
10
166.648298
20
90.668891
30
0.0
11
168.092921
21
91.787521
31
0.0
0
LINE
8
casing
62
4
5
229
100
AcDbEntity
100
AcDbLine
10
168.092921
20
91.787521
30
0.0
11
169.352456
21
93.087880
31
0.0
0
LINE
8
casing
62
4
5
22a
100
AcDbEntity
100
AcDbLine
10
169.352456
20
93.087880
30
0.0
11
170.347936
21
94.649606
31
0.0
0
LINE
8
casing
62
4
5
22b
100
AcDbEntity
100
AcDbLine
10
170.347936
20
94.649606
30
0.0
11
171.000391
21
96.552338
31
0.0
0
LINE
8
casing
62
4
5
22c
100
AcDbEntity
100
AcDbLine
10
171.000391
20
96.552338
30
0.0
11
171.230855
21
98.875714
31
0.0
0
LINE
8
casing
62
4
5
22d
100
AcDbEntity
100
AcDbLine
10
171.230855
20
98.875714
30
0.0
11
170.980271
21
101.504811
31
0.0
0
LINE
8
casing
62
4
5
22e
100
AcDbEntity
100
AcDbLine
10
170.980271
20
101.504811
30
0.0
11
170.226383
21
104.046437
31
0.0
0
LINE
8
casing
62
4
5
22f
100
AcDbEntity
100
AcDbLine
10
170.226383
20
104.046437
30
0.0
11
168.944208
21
106.610774
31
0.0
0
LINE
8
casing
62
4
5
230
100
AcDbEntity
100
AcDbLine
10
168.944208
20
106.610774
30
0.0
11
167.108760
21
109.308004
31
0.0
0
LINE
8
casing
62
4
5
231
100
AcDbEntity
100
AcDbLine
10
167.108760
20
109.308004
30
0.0
11
164.695056
21
112.248308
31
0.0
0
LINE
8
casing
62
4
5
232
100
AcDbEntity
100
AcDbLine
10
164.695056
20
112.248308
30
0.0
11
161.678112
21
115.541868
31
0.0
0
LINE
8
casing
62
4
5
233
100
AcDbEntity
100
AcDbLine
10
161.678112
20
115.541868
30
0.0
11
153.734565
21
123.629484
31
0.0
0
LINE
8
casing
62
4
5
234
100
AcDbEntity
100
AcDbLine
10
153.734565
20
123.629484
30
0.0
11
152.107871
21
125.466037
31
0.0
0
LINE
8
casing
62
4
5
235
100
AcDbEntity
100
AcDbLine
10
152.107871
20
125.466037
30
0.0
11
150.783716
21
127.386535
31
0.0
0
LINE
8
casing
62
4
5
236
100
AcDbEntity
100
AcDbLine
10
150.783716
20
127.386535
30
0.0
11
149.745647
21
129.381647
31
0.0
0
LINE
8
casing
62
4
5
237
100
AcDbEntity
100
AcDbLine
10
149.745647
20
129.381647
30
0.0
11
148.977209
21
131.442047
31
0.0
0
LINE
8
casing
62
4
5
238
100
AcDbEntity
100
AcDbLine
10
148.977209
20
131.442047
30
0.0
11
148.461950
21
133.558405
31
0.0
0
LINE
8
casing
62
4
5
239
100
AcDbEntity
100
AcDbLine
10
148.461950
20
133.558405
30
0.0
11
148.183414
21
135.721393
31
0.0
0
LINE
8
casing
62
4
5
23a
100
AcDbEntity
100
AcDbLine
10
148.183414
20
135.721393
30
0.0
11
148.125149
21
137.921682
31
0.0
0
LINE
8
casing
62
4
5
23b
100
AcDbEntity
100
AcDbLine
10
148.125149
20
137.921682
30
0.0
11
148.270701
21
140.149944
31
0.0
0
LINE
8
casing
62
4
5
23c
100
AcDbEntity
100
AcDbLine
10
148.270701
20
140.149944
30
0.0
11
148.603616
21
142.396851
31
0.0
0
LINE
8
casing
62
4
5
23d
100
AcDbEntity
100
AcDbLine
10
148.603616
20
142.396851
30
0.0
11
149.107439
21
144.653074
31
0.0
0
LINE
8
casing
62
4
5
23e
100
AcDbEntity
100
AcDbLine
10
149.107439
20
144.653074
30
0.0
11
150.561998
21
149.156154
31
0.0
0
LINE
8
casing
62
4
5
23f
100
AcDbEntity
100
AcDbLine
10
150.561998
20
149.156154
30
0.0
11
152.502749
21
153.584555
31
0.0
0
LINE
8
casing
62
4
5
240
100
AcDbEntity
100
AcDbLine
10
152.502749
20
153.584555
30
0.0
11
154.798061
21
157.863650
31
0.0
0
LINE
8
casing
62
4
5
241
100
AcDbEntity
100
AcDbLine
10
154.798061
20
157.863650
30
0.0
11
157.316304
21
161.918812
31
0.0
0
LINE
8
casing
62
4
5
242
100
AcDbEntity
100
AcDbLine
10
157.316304
20
161.918812
30
0.0
11
159.925847
21
165.675411
31
0.0
0
LINE
8
casing
62
4
5
243
100
AcDbEntity
100
AcDbLine
10
159.925847
20
165.675411
30
0.0
11
162.495062
21
169.058821
31
0.0
0
LINE
8
casing
62
4
5
244
100
AcDbEntity
100
AcDbLine
10
162.495062
20
169.058821
30
0.0
11
164.892317
21
171.994413
31
0.0
0
LINE
8
casing
62
4
5
245
100
AcDbEntity
100
AcDbLine
10
164.892317
20
171.994413
30
0.0
11
168.644428
21
176.223631
31
0.0
0
LINE
8
casing
62
4
5
246
100
AcDbEntity
100
AcDbLine
10
168.644428
20
176.223631
30
0.0
11
170.129141
21
177.766042
31
0.0
0
LINE
8
casing
62
4
5
247
100
AcDbEntity
100
AcDbLine
10
170.129141
20
177.766042
30
0.0
11
172.425668
21
177.766042
31
0.0
0
LINE
8
casing
62
4
5
248
100
AcDbEntity
100
AcDbLine
10
172.425668
20
177.766042
30
0.0
11
168.004105
21
172.508174
31
0.0
0
LINE
8
casing
62
4
5
249
100
AcDbEntity
100
AcDbLine
10
168.004105
20
172.508174
30
0.0
11
164.237827
21
167.600236
31
0.0
0
LINE
8
casing
62
4
5
24a
100
AcDbEntity
100
AcDbLine
10
164.237827
20
167.600236
30
0.0
11
161.094444
21
163.022402
31
0.0
0
LINE
8
casing
62
4
5
24b
100
AcDbEntity
100
AcDbLine
10
161.094444
20
163.022402
30
0.0
11
158.541561
21
158.754843
31
0.0
0
LINE
8
casing
62
4
5
24c
100
AcDbEntity
100
AcDbLine
10
158.541561
20
158.754843
30
0.0
11
156.546788
21
154.777734
31
0.0
0
LINE
8
casing
62
4
5
24d
100
AcDbEntity
100
AcDbLine
10
156.546788
20
154.777734
30
0.0
11
155.077732
21
151.071248
31
0.0
0
LINE
8
casing
62
4
5
24e
100
AcDbEntity
100
AcDbLine
10
155.077732
20
151.071248
30
0.0
11
154.102002
21
147.615556
31
0.0
0
LINE
8
casing
62
4
5
24f
100
AcDbEntity
100
AcDbLine
10
154.102002
20
147.615556
30
0.0
11
153.587204
21
144.390834
31
0.0
0
LINE
8
casing
62
4
5
250
100
AcDbEntity
100
AcDbLine
10
153.587204
20
144.390834
30
0.0
11
153.500948
21
141.377253
31
0.0
0
LINE
8
casing
62
4
5
251
100
AcDbEntity
100
AcDbLine
10
153.500948
20
141.377253
30
0.0
11
153.810841
21
138.554986
31
0.0
0
LINE
8
casing
62
4
5
252
100
AcDbEntity
100
AcDbLine
10
153.810841
20
138.554986
30
0.0
11
154.484490
21
135.904207
31
0.0
0
LINE
8
casing
62
4
5
253
100
AcDbEntity
100
AcDbLine
10
154.484490
20
135.904207
30
0.0
11
155.489505
21
133.405089
31
0.0
0
LINE
8
casing
62
4
5
254
100
AcDbEntity
100
AcDbLine
10
155.489505
20
133.405089
30
0.0
11
156.793492
21
131.037805
31
0.0
0
LINE
8
casing
62
4
5
255
100
AcDbEntity
100
AcDbLine
10
156.793492
20
131.037805
30
0.0
11
158.364059
21
128.782527
31
0.0
0
LINE
8
casing
62
4
5
256
100
AcDbEntity
100
AcDbLine
10
158.364059
20
128.782527
30
0.0
11
160.168816
21
126.619429
31
0.0
0
LINE
8
casing
62
4
5
257
100
AcDbEntity
100
AcDbLine
10
160.168816
20
126.619429
30
0.0
11
162.175368
21
124.528684
31
0.0
0
LINE
8
casing
62
4
5
258
100
AcDbEntity
100
AcDbLine
10
162.175368
20
124.528684
30
0.0
11
159.455553
21
121.022092
31
0.0
0
LINE
8
casing
62
4
5
259
100
AcDbEntity
100
AcDbLine
10
159.455553
20
121.022092
30
0.0
11
162.981312
21
117.898764
31
0.0
0
LINE
8
casing
62
4
5
25a
100
AcDbEntity
100
AcDbLine
10
162.981312
20
117.898764
30
0.0
11
165.937509
21
114.885687
31
0.0
0
LINE
8
casing
62
4
5
25b
100
AcDbEntity
100
AcDbLine
10
165.937509
20
114.885687
30
0.0
11
168.353761
21
111.975456
31
0.0
0
LINE
8
casing
62
4
5
25c
100
AcDbEntity
100
AcDbLine
10
168.353761
20
111.975456
30
0.0
11
170.259686
21
109.160668
31
0.0
0
LINE
8
casing
62
4
5
25d
100
AcDbEntity
100
AcDbLine
10
170.259686
20
109.160668
30
0.0
11
171.684902
21
106.433921
31
0.0
0
LINE
8
casing
62
4
5
25e
100
AcDbEntity
100
AcDbLine
10
171.684902
20
106.433921
30
0.0
11
172.659027
21
103.787810
31
0.0
0
LINE
8
casing
62
4
5
25f
100
AcDbEntity
100
AcDbLine
10
172.659027
20
103.787810
30
0.0
11
173.211679
21
101.214932
31
0.0
0
LINE
8
casing
62
4
5
260
100
AcDbEntity
100
AcDbLine
10
173.211679
20
101.214932
30
0.0
11
173.372475
21
98.707884
31
0.0
0
LINE
8
casing
62
4
5
261
100
AcDbEntity
100
AcDbLine
10
173.372475
20
98.707884
30
0.0
11
173.171033
21
96.259263
31
0.0
0
LINE
8
casing
62
4
5
262
100
AcDbEntity
100
AcDbLine
10
173.171033
20
96.259263
30
0.0
11
172.636970
21
93.861664
31
0.0
0
LINE
8
casing
62
4
5
263
100
AcDbEntity
100
AcDbLine
10
172.636970
20
93.861664
30
0.0
11
171.799906
21
91.507685
31
0.0
0
LINE
8
casing
62
4
5
264
100
AcDbEntity
100
AcDbLine
10
171.799906
20
91.507685
30
0.0
11
170.689456
21
89.189921
31
0.0
0
LINE
8
casing
62
4
5
265
100
AcDbEntity
100
AcDbLine
10
170.689456
20
89.189921
30
0.0
11
169.335240
21
86.900971
31
0.0
0
LINE
8
casing
62
4
5
266
100
AcDbEntity
100
AcDbLine
10
169.335240
20
86.900971
30
0.0
11
167.766874
21
84.633429
31
0.0
0
LINE
8
casing
62
4
5
267
100
AcDbEntity
100
AcDbLine
10
167.766874
20
84.633429
30
0.0
11
164.106166
21
80.132961
31
0.0
0
LINE
8
casing
62
4
5
268
100
AcDbEntity
100
AcDbLine
10
164.106166
20
80.132961
30
0.0
11
167.004998
21
77.752230
31
0.0
0
LINE
8
fairing
62
4
5
269
100
AcDbEntity
100
AcDbLine
10
167.512257
20
129.903324
30
0.0
11
165.959077
21
131.806681
31
0.0
0
LINE
8
fairing
62
4
5
26a
100
AcDbEntity
100
AcDbLine
10
165.959077
20
131.806681
30
0.0
11
164.670724
21
133.715008
31
0.0
0
LINE
8
fairing
62
4
5
26b
100
AcDbEntity
100
AcDbLine
10
164.670724
20
133.715008
30
0.0
11
163.637117
21
135.628563
31
0.0
0
LINE
8
fairing
62
4
5
26c
100
AcDbEntity
100
AcDbLine
10
163.637117
20
135.628563
30
0.0
11
162.848173
21
137.547602
31
0.0
0
LINE
8
fairing
62
4
5
26d
100
AcDbEntity
100
AcDbLine
10
162.848173
20
137.547602
30
0.0
11
162.293813
21
139.472381
31
0.0
0
LINE
8
fairing
62
4
5
26e
100
AcDbEntity
100
AcDbLine
10
162.293813
20
139.472381
30
0.0
11
161.963955
21
141.403158
31
0.0
0
LINE
8
fairing
62
4
5
26f
100
AcDbEntity
100
AcDbLine
10
161.963955
20
141.403158
30
0.0
11
161.848517
21
143.340190
31
0.0
0
LINE
8
fairing
62
4
5
270
100
AcDbEntity
100
AcDbLine
10
161.848517
20
143.340190
30
0.0
11
161.937419
21
145.283734
31
0.0
0
LINE
8
fairing
62
4
5
271
100
AcDbEntity
100
AcDbLine
10
161.937419
20
145.283734
30
0.0
11
162.220580
21
147.234046
31
0.0
0
LINE
8
fairing
62
4
5
272
100
AcDbEntity
100
AcDbLine
10
162.220580
20
147.234046
30
0.0
11
162.687917
21
149.191383
31
0.0
0
LINE
8
fairing
62
4
5
273
100
AcDbEntity
100
AcDbLine
10
162.687917
20
149.191383
30
0.0
11
163.329350
21
151.156002
31
0.0
0
LINE
8
fairing
62
4
5
274
100
AcDbEntity
100
AcDbLine
10
163.329350
20
151.156002
30
0.0
11
164.134798
21
153.128160
31
0.0
0
LINE
8
fairing
62
4
5
275
100
AcDbEntity
100
AcDbLine
10
164.134798
20
153.128160
30
0.0
11
166.197414
21
157.096119
31
0.0
0
LINE
8
fairing
62
4
5
276
100
AcDbEntity
100
AcDbLine
10
166.197414
20
157.096119
30
0.0
11
168.795114
21
161.097317
31
0.0
0
LINE
8
fairing
62
4
5
277
100
AcDbEntity
100
AcDbLine
10
168.795114
20
161.097317
30
0.0
11
171.847248
21
165.133808
31
0.0
0
LINE
8
fairing
62
4
5
278
100
AcDbEntity
100
AcDbLine
10
171.847248
20
165.133808
30
0.0
11
175.273168
21
169.207646
31
0.0
0
LINE
8
fairing
62
4
5
279
100
AcDbEntity
100
AcDbLine
10
175.273168
20
169.207646
30
0.0
11
182.923765
21
177.475584
31
0.0
0
LINE
8
fairing
62
4
5
27a
100
AcDbEntity
100
AcDbLine
10
182.923765
20
177.475584
30
0.0
11
191.101707
21
185.917570
31
0.0
0
LINE
8
fairing
62
4
5
27b
100
AcDbEntity
100
AcDbLine
10
191.101707
20
185.917570
30
0.0
11
199.161798
21
194.550044
31
0.0
0
LINE
8
fairing
62
4
5
27c
100
AcDbEntity
100
AcDbLine
10
199.161798
20
194.550044
30
0.0
11
199.161798
21
163.649725
31
0.0
0
LINE
8
fairing
62
4
5
27d
100
AcDbEntity
100
AcDbLine
10
199.161798
20
163.649725
30
0.0
11
195.685475
21
163.788468
31
0.0
0
LINE
8
fairing
62
4
5
27e
100
AcDbEntity
100
AcDbLine
10
195.685475
20
163.788468
30
0.0
11
192.427849
21
163.769258
31
0.0
0
LINE
8
fairing
62
4
5
27f
100
AcDbEntity
100
AcDbLine
10
192.427849
20
163.769258
30
0.0
11
189.383670
21
163.600684
31
0.0
0
LINE
8
fairing
62
4
5
280
100
AcDbEntity
100
AcDbLine
10
189.383670
20
163.600684
30
0.0
11
186.547689
21
163.291332
31
0.0
0
LINE
8
fairing
62
4
5
281
100
AcDbEntity
100
AcDbLine
10
186.547689
20
163.291332
30
0.0
11
183.914657
21
162.849792
31
0.0
0
LINE
8
fairing
62
4
5
282
100
AcDbEntity
100
AcDbLine
10
183.914657
20
162.849792
30
0.0
11
181.479326
21
162.284653
31
0.0
0
LINE
8
fairing
62
4
5
283
100
AcDbEntity
100
AcDbLine
10
181.479326
20
162.284653
30
0.0
11
179.236446
21
161.604501
31
0.0
0
LINE
8
fairing
62
4
5
284
100
AcDbEntity
100
AcDbLine
10
179.236446
20
161.604501
30
0.0
11
177.180769
21
160.817926
31
0.0
0
LINE
8
fairing
62
4
5
285
100
AcDbEntity
100
AcDbLine
10
177.180769
20
160.817926
30
0.0
11
175.307046
21
159.933517
31
0.0
0
LINE
8
fairing
62
4
5
286
100
AcDbEntity
100
AcDbLine
10
175.307046
20
159.933517
30
0.0
11
173.610028
21
158.959860
31
0.0
0
LINE
8
fairing
62
4
5
287
100
AcDbEntity
100
AcDbLine
10
173.610028
20
158.959860
30
0.0
11
172.084467
21
157.905546
31
0.0
0
LINE
8
fairing
62
4
5
288
100
AcDbEntity
100
AcDbLine
10
172.084467
20
157.905546
30
0.0
11
170.725112
21
156.779161
31
0.0
0
LINE
8
fairing
62
4
5
289
100
AcDbEntity
100
AcDbLine
10
170.725112
20
156.779161
30
0.0
11
169.526717
21
155.589295
31
0.0
0
LINE
8
fairing
62
4
5
28a
100
AcDbEntity
100
AcDbLine
10
169.526717
20
155.589295
30
0.0
11
168.484031
21
154.344535
31
0.0
0
LINE
8
fairing
62
4
5
28b
100
AcDbEntity
100
AcDbLine
10
168.484031
20
154.344535
30
0.0
11
166.844792
21
151.724689
31
0.0
0
LINE
8
fairing
62
4
5
28c
100
AcDbEntity
100
AcDbLine
10
166.844792
20
151.724689
30
0.0
11
165.765406
21
148.988331
31
0.0
0
LINE
8
fairing
62
4
5
28d
100
AcDbEntity
100
AcDbLine
10
165.765406
20
148.988331
30
0.0
11
165.203881
21
146.204166
31
0.0
0
LINE
8
fairing
62
4
5
28e
100
AcDbEntity
100
AcDbLine
10
165.203881
20
146.204166
30
0.0
11
165.118227
21
143.440902
31
0.0
0
LINE
8
fairing
62
4
5
28f
100
AcDbEntity
100
AcDbLine
10
165.118227
20
143.440902
30
0.0
11
165.466453
21
140.767244
31
0.0
0
LINE
8
fairing
62
4
5
290
100
AcDbEntity
100
AcDbLine
10
165.466453
20
140.767244
30
0.0
11
166.206568
21
138.251901
31
0.0
0
LINE
8
fairing
62
4
5
291
100
AcDbEntity
100
AcDbLine
10
166.206568
20
138.251901
30
0.0
11
167.296581
21
135.963578
31
0.0
0
LINE
8
fairing
62
4
5
292
100
AcDbEntity
100
AcDbLine
10
167.296581
20
135.963578
30
0.0
11
168.694501
21
133.970983
31
0.0
0
LINE
8
fairing
62
4
5
293
100
AcDbEntity
100
AcDbLine
10
168.694501
20
133.970983
30
0.0
11
170.358339
21
132.342822
31
0.0
0
LINE
8
fairing
62
4
5
294
100
AcDbEntity
100
AcDbLine
10
170.358339
20
132.342822
30
0.0
11
167.512257
21
129.903324
31
0.0
  0
ENDSEC
  0
SECTION
  2
OBJECTS
  0
DICTIONARY
  5
C
330
0
100
AcDbDictionary
  3
ACAD_GROUP
350
D
  3
ACAD_MLINESTYLE
350
17
  0
DICTIONARY
  5
D
330
C
100
AcDbDictionary
  0
DICTIONARY
  5
1A
330
C
100
AcDbDictionary
  0
DICTIONARY
  5
17
330
C
100
AcDbDictionary
  3
STANDARD
350
18
  0
DICTIONARY
  5
19
330
C
100
AcDbDictionary
  0
ENDSEC
  0
EOF
